<svg width="166" height="48" fill="none" xmlns="http://www.w3.org/2000/svg">
  <rect width="166" height="48" rx="4" fill="#1E1F20"/>
  <path d="M41.538 23.236a5.995 5.995 0 0 1 .763-2.854 5.905 5.905 0 0 1 2.03-2.128 6.03 6.03 0 0 0-2.063-1.86 5.945 5.945 0 0 0-2.668-.73c-1.99-.21-3.92 1.207-4.934 1.207-1.033 0-2.595-1.185-4.276-1.15a6.243 6.243 0 0 0-3.077.93 6.343 6.343 0 0 0-2.224 2.343c-2.293 4.018-.583 9.924 1.613 13.172 1.098 1.59 2.382 3.367 4.062 3.303 1.644-.069 2.258-1.06 4.242-1.06 1.966 0 2.542 1.06 4.256 1.02 1.764-.029 2.876-1.597 3.936-3.203a13.223 13.223 0 0 0 1.8-3.71 5.685 5.685 0 0 1-2.515-2.113 5.79 5.79 0 0 1-.945-3.166ZM38.3 13.529a5.896 5.896 0 0 0 1.321-4.189 5.852 5.852 0 0 0-3.802 1.992 5.58 5.58 0 0 0-1.074 1.88 5.628 5.628 0 0 0-.281 2.153 4.809 4.809 0 0 0 2.127-.472 4.868 4.868 0 0 0 1.71-1.364ZM62.319 31.443h-5.61l-1.348 4.028h-2.376L58.3 20.57h2.469L66.08 35.47h-2.416l-1.346-4.028Zm-5.03-1.858h4.447l-2.192-6.537h-.061l-2.193 6.537ZM77.557 30.04c0 3.376-1.785 5.545-4.478 5.545a3.602 3.602 0 0 1-1.958-.46 3.661 3.661 0 0 1-1.418-1.441h-.051v5.381h-2.203V24.607h2.132v1.807h.04a3.83 3.83 0 0 1 1.447-1.439 3.77 3.77 0 0 1 1.97-.482c2.724 0 4.519 2.18 4.519 5.546Zm-2.264 0c0-2.2-1.123-3.646-2.836-3.646-1.682 0-2.814 1.476-2.814 3.645 0 2.19 1.132 3.655 2.814 3.655 1.713 0 2.836-1.435 2.836-3.655ZM89.367 30.04c0 3.376-1.785 5.545-4.478 5.545a3.601 3.601 0 0 1-1.958-.46 3.66 3.66 0 0 1-1.418-1.441h-.051v5.381h-2.203V24.607h2.132v1.807h.04a3.83 3.83 0 0 1 1.447-1.439 3.769 3.769 0 0 1 1.97-.482c2.724 0 4.52 2.18 4.52 5.546Zm-2.264 0c0-2.2-1.122-3.646-2.835-3.646-1.683 0-2.815 1.476-2.815 3.645 0 2.19 1.132 3.655 2.814 3.655 1.714 0 2.836-1.435 2.836-3.655ZM97.173 31.32c.163 1.477 1.58 2.447 3.518 2.447 1.857 0 3.192-.97 3.192-2.303 0-1.156-.805-1.849-2.713-2.323l-1.907-.466c-2.703-.66-3.957-1.94-3.957-4.017 0-2.571 2.213-4.337 5.355-4.337 3.11 0 5.242 1.766 5.314 4.337h-2.224c-.133-1.487-1.347-2.385-3.121-2.385s-2.989.909-2.989 2.23c0 1.054.776 1.674 2.673 2.148l1.621.404c3.02.723 4.275 1.95 4.275 4.13 0 2.788-2.194 4.534-5.682 4.534-3.264 0-5.468-1.705-5.61-4.4h2.255ZM110.963 22.035v2.572h2.041v1.766h-2.041v5.99c0 .93.409 1.363 1.306 1.363.242-.004.484-.021.724-.051v1.755c-.403.076-.813.11-1.223.103-2.173 0-3.02-.826-3.02-2.933v-6.227h-1.56v-1.766h1.56v-2.572h2.213ZM114.185 30.04c0-3.419 1.989-5.567 5.089-5.567 3.112 0 5.091 2.148 5.091 5.566 0 3.428-1.969 5.567-5.091 5.567-3.12 0-5.089-2.139-5.089-5.567Zm7.935 0c0-2.346-1.061-3.73-2.846-3.73-1.784 0-2.844 1.395-2.844 3.73 0 2.354 1.06 3.727 2.844 3.727 1.785 0 2.846-1.373 2.846-3.728ZM126.181 24.607h2.1v1.849h.051a2.594 2.594 0 0 1 .947-1.446 2.536 2.536 0 0 1 1.634-.517c.254-.001.507.027.755.083v2.086c-.32-.1-.655-.145-.99-.135a2.196 2.196 0 0 0-1.715.716 2.253 2.253 0 0 0-.58 1.784v6.444h-2.202V24.607ZM141.823 32.28c-.296 1.972-2.193 3.326-4.62 3.326-3.122 0-5.059-2.118-5.059-5.515 0-3.408 1.948-5.618 4.966-5.618 2.969 0 4.836 2.065 4.836 5.359v.764h-7.579v.135a2.843 2.843 0 0 0 .758 2.198 2.765 2.765 0 0 0 2.129.88c.52.049 1.043-.074 1.489-.349a2.45 2.45 0 0 0 .989-1.18h2.091Zm-7.445-3.243h5.364a2.64 2.64 0 0 0-.721-1.96 2.573 2.573 0 0 0-1.911-.797 2.689 2.689 0 0 0-1.934.802 2.781 2.781 0 0 0-.798 1.955ZM57.013 9.353c.462-.034.925.037 1.357.207.431.17.82.434 1.139.774a3.205 3.205 0 0 1 .832 2.576c0 2.288-1.221 3.603-3.328 3.603H54.46v-7.16h2.554ZM55.557 15.5h1.334a2.198 2.198 0 0 0 1.77-.725 2.26 2.26 0 0 0 .562-1.85 2.284 2.284 0 0 0-.57-1.837 2.228 2.228 0 0 0-1.762-.723h-1.334V15.5ZM61.581 13.809a2.59 2.59 0 0 1 .646-1.966c.237-.264.526-.475.848-.619a2.5 2.5 0 0 1 2.894.62 2.568 2.568 0 0 1 .646 1.965 2.59 2.59 0 0 1-.644 1.968 2.502 2.502 0 0 1-3.745 0 2.567 2.567 0 0 1-.645-1.968Zm3.95 0c0-1.171-.519-1.856-1.431-1.856-.915 0-1.43.685-1.43 1.856 0 1.18.514 1.86 1.43 1.86.912 0 1.432-.684 1.432-1.86ZM73.306 16.513h-1.092l-1.103-3.98h-.084l-1.098 3.98h-1.082l-1.471-5.404h1.068l.956 4.124h.079l1.097-4.123h1.01l1.097 4.123h.084l.951-4.123h1.053l-1.465 5.403ZM76.008 11.11h1.014v.858h.079a1.61 1.61 0 0 1 .644-.74c.286-.172.617-.25.949-.223a1.716 1.716 0 0 1 1.4.555 1.764 1.764 0 0 1 .447 1.455v3.498h-1.053v-3.23c0-.869-.373-1.3-1.152-1.3a1.211 1.211 0 0 0-.948.388 1.243 1.243 0 0 0-.326.98v3.162h-1.054v-5.404ZM82.22 9h1.052v7.513H82.22V9ZM84.737 13.809a2.591 2.591 0 0 1 .646-1.966 2.501 2.501 0 0 1 3.742 0 2.568 2.568 0 0 1 .646 1.966 2.592 2.592 0 0 1-.644 1.969 2.503 2.503 0 0 1-3.746 0 2.569 2.569 0 0 1-.644-1.97Zm3.95 0c0-1.171-.52-1.856-1.432-1.856-.915 0-1.43.685-1.43 1.856 0 1.18.515 1.86 1.43 1.86.912 0 1.432-.684 1.432-1.86ZM90.88 14.985c0-.973.715-1.534 1.985-1.613l1.445-.085v-.466c0-.57-.373-.893-1.093-.893-.588 0-.995.219-1.112.6h-1.02c.108-.928.97-1.523 2.181-1.523 1.338 0 2.093.675 2.093 1.816v3.692h-1.014v-.76h-.084c-.169.273-.406.495-.688.644-.281.15-.597.22-.914.205a1.594 1.594 0 0 1-1.244-.409 1.632 1.632 0 0 1-.536-1.208Zm3.43-.462v-.452l-1.303.085c-.735.05-1.069.303-1.069.78 0 .485.417.768.99.768a1.244 1.244 0 0 0 .938-.294 1.27 1.27 0 0 0 .444-.887ZM96.743 13.809c0-1.708.867-2.79 2.215-2.79.334-.015.665.066.955.234.289.168.526.416.682.715h.079V9h1.053v7.513h-1.009v-.854h-.084a1.86 1.86 0 0 1-.708.708c-.295.166-.63.248-.968.235-1.357 0-2.215-1.082-2.215-2.793Zm1.088 0c0 1.146.534 1.836 1.426 1.836.888 0 1.436-.7 1.436-1.831 0-1.127-.554-1.836-1.436-1.836-.887 0-1.426.694-1.426 1.83ZM106.085 13.809a2.585 2.585 0 0 1 .645-1.966 2.505 2.505 0 0 1 3.742 0 2.569 2.569 0 0 1 .646 1.966 2.57 2.57 0 0 1-.644 1.969 2.506 2.506 0 0 1-3.745 0 2.57 2.57 0 0 1-.644-1.97Zm3.95 0c0-1.171-.52-1.856-1.432-1.856-.915 0-1.43.685-1.43 1.856 0 1.18.515 1.86 1.43 1.86.912 0 1.432-.684 1.432-1.86ZM112.531 11.11h1.014v.858h.079c.133-.308.358-.567.644-.74a1.58 1.58 0 0 1 .948-.223 1.715 1.715 0 0 1 1.401.555 1.785 1.785 0 0 1 .447 1.455v3.498h-1.054v-3.23c0-.869-.372-1.3-1.151-1.3a1.208 1.208 0 0 0-.948.388 1.255 1.255 0 0 0-.327.981v3.161h-1.053v-5.404ZM123.015 9.764v1.37h1.156v.898h-1.156v2.779c0 .566.23.814.754.814.135 0 .269-.009.402-.025v.888a3.42 3.42 0 0 1-.573.055c-1.171 0-1.638-.417-1.638-1.46v-3.05h-.847v-.899h.847v-1.37h1.055ZM125.61 9h1.044v2.978h.083c.14-.311.372-.571.663-.745.291-.173.628-.25.965-.223a1.74 1.74 0 0 1 1.386.57c.176.192.307.421.385.67.078.25.101.515.067.774v3.489h-1.055v-3.226c0-.863-.397-1.3-1.141-1.3a1.228 1.228 0 0 0-.986.369 1.274 1.274 0 0 0-.358 1.001v3.156h-1.053V9ZM136.344 15.054a2.19 2.19 0 0 1-.876 1.207 2.147 2.147 0 0 1-1.437.356 2.4 2.4 0 0 1-1.87-.817 2.481 2.481 0 0 1-.595-1.972 2.514 2.514 0 0 1 .594-1.98 2.46 2.46 0 0 1 1.867-.843c1.485 0 2.38 1.027 2.38 2.724v.372h-3.768v.06a1.439 1.439 0 0 0 .372 1.092 1.4 1.4 0 0 0 1.049.456c.252.03.507-.015.733-.132.227-.117.413-.299.537-.523h1.014Zm-3.705-1.741h2.695a1.313 1.313 0 0 0-.35-.995 1.276 1.276 0 0 0-.963-.405 1.354 1.354 0 0 0-.983.405 1.402 1.402 0 0 0-.399.995Z" fill="#fff"/>
</svg>
