<svg width="167" height="48" fill="none" xmlns="http://www.w3.org/2000/svg">
  <rect width="167" height="48" rx="4" fill="#1E1F20"/>
  <path d="M59.384 12.053a3.288 3.288 0 0 1-.883 2.403 3.446 3.446 0 0 1-1.194.816 3.41 3.41 0 0 1-1.419.25 3.623 3.623 0 0 1-1.423-.278 3.658 3.658 0 0 1-1.206-.815 3.747 3.747 0 0 1-1.065-2.668 3.75 3.75 0 0 1 1.065-2.668c.344-.35.754-.627 1.206-.815A3.624 3.624 0 0 1 55.888 8a3.63 3.63 0 0 1 1.46.302c.428.176.81.451 1.112.804l-.625.634a2.404 2.404 0 0 0-.875-.657 2.375 2.375 0 0 0-1.072-.198 2.72 2.72 0 0 0-1.985.843 2.788 2.788 0 0 0-.776 2.033c-.009.56.147 1.112.447 1.582.301.471.733.841 1.242 1.063a2.763 2.763 0 0 0 3.058-.573 2.28 2.28 0 0 0 .596-1.458h-2.582v-.865h3.446c.033.179.05.36.05.543ZM64.847 9.046H61.61v2.283h2.92v.865h-2.92v2.282h3.238v.885h-4.151v-7.2h4.151v.885ZM68.7 15.361h-.914V9.046H65.8v-.885h4.886v.885H68.7v6.315ZM74.223 15.361v-7.2h.913v7.2h-.913ZM79.189 15.361h-.915V9.046h-1.986v-.885h4.887v.885h-1.986v6.315ZM90.425 14.43a3.67 3.67 0 0 1-2.607 1.092 3.67 3.67 0 0 1-2.607-1.091 3.684 3.684 0 0 1-.792-1.227 3.721 3.721 0 0 1-.256-1.443 3.722 3.722 0 0 1 .256-1.442c.18-.459.45-.876.792-1.227a3.64 3.64 0 0 1 5.21.005 3.723 3.723 0 0 1 1.052 2.665 3.726 3.726 0 0 1-1.048 2.669Zm-4.54-.602c.513.518 1.208.81 1.932.81.725 0 1.42-.292 1.932-.81a2.823 2.823 0 0 0 .79-2.067 2.851 2.851 0 0 0-.79-2.066 2.717 2.717 0 0 0-1.932-.81c-.724 0-1.419.292-1.931.81a2.853 2.853 0 0 0-.79 2.067 2.854 2.854 0 0 0 .79 2.066ZM92.755 15.361v-7.2h1.113l3.456 5.601h.039l-.04-1.387V8.16h.915v7.2h-.954L93.668 9.49h-.039l.04 1.387v4.485h-.914Z" fill="#fff" stroke="#fff" stroke-width=".2" stroke-miterlimit="10"/>
  <path d="M83.938 25.863a4.997 4.997 0 0 0-2.795.87 5.092 5.092 0 0 0-1.849 2.294 5.165 5.165 0 0 0-.278 2.947 5.124 5.124 0 0 0 1.383 2.609 5.022 5.022 0 0 0 2.582 1.391c.977.195 1.99.093 2.91-.294a5.055 5.055 0 0 0 2.259-1.88 5.149 5.149 0 0 0 .848-2.833 5.085 5.085 0 0 0-.366-1.97 5.034 5.034 0 0 0-1.096-1.668 4.965 4.965 0 0 0-1.652-1.103 4.914 4.914 0 0 0-1.946-.363Zm0 8.197a3.032 3.032 0 0 1-1.758-.413 3.087 3.087 0 0 1-1.223-1.342 3.136 3.136 0 0 1 .522-3.451c.419-.456.964-.774 1.564-.911.6-.138 1.226-.09 1.799.138a3.07 3.07 0 0 1 1.41 1.14c.346.515.53 1.123.53 1.746a2.988 2.988 0 0 1-.778 2.153 2.886 2.886 0 0 1-2.066.94ZM72.9 25.863a4.997 4.997 0 0 0-2.795.87 5.09 5.09 0 0 0-1.849 2.294 5.162 5.162 0 0 0-.279 2.947 5.124 5.124 0 0 0 1.384 2.609 5.023 5.023 0 0 0 2.581 1.391c.978.195 1.99.093 2.91-.294a5.055 5.055 0 0 0 2.26-1.88 5.149 5.149 0 0 0 .848-2.833 5.085 5.085 0 0 0-.366-1.97 5.034 5.034 0 0 0-1.096-1.668 4.962 4.962 0 0 0-1.652-1.103 4.914 4.914 0 0 0-1.946-.363Zm0 8.197a3.032 3.032 0 0 1-1.758-.413 3.087 3.087 0 0 1-1.223-1.342 3.135 3.135 0 0 1 .522-3.451c.419-.456.964-.774 1.564-.911.6-.138 1.226-.09 1.799.138a3.07 3.07 0 0 1 1.41 1.14c.346.515.53 1.123.53 1.746a2.984 2.984 0 0 1-.778 2.153 2.886 2.886 0 0 1-2.066.94Zm-13.13-6.63v2.164h5.117a4.546 4.546 0 0 1-1.165 2.726c-.513.53-1.13.944-1.81 1.217-.681.273-1.41.398-2.142.368a5.656 5.656 0 0 1-3.974-1.714 5.799 5.799 0 0 1-1.64-4.047c0-1.514.589-2.968 1.64-4.046a5.656 5.656 0 0 1 3.974-1.715 5.418 5.418 0 0 1 3.856 1.547l1.509-1.527a7.454 7.454 0 0 0-2.465-1.64 7.38 7.38 0 0 0-2.9-.545 7.743 7.743 0 0 0-3.032.57 7.82 7.82 0 0 0-2.578 1.71 7.93 7.93 0 0 0-1.727 2.586 8.013 8.013 0 0 0 0 6.12c.4.97.988 1.849 1.727 2.586a7.822 7.822 0 0 0 2.579 1.71 7.743 7.743 0 0 0 3.03.57 7.078 7.078 0 0 0 2.967-.516 7.153 7.153 0 0 0 2.494-1.707 7.206 7.206 0 0 0 1.852-5.065 7.13 7.13 0 0 0-.114-1.353h-7.199Zm53.698 1.68a4.74 4.74 0 0 0-1.651-2.312 4.648 4.648 0 0 0-2.664-.935 4.742 4.742 0 0 0-1.882.403 4.784 4.784 0 0 0-1.573 1.12 4.847 4.847 0 0 0-1.012 1.655 4.908 4.908 0 0 0-.287 1.926 5.038 5.038 0 0 0 1.43 3.628 4.929 4.929 0 0 0 1.638 1.106c.613.254 1.271.38 1.934.37.831.004 1.649-.2 2.382-.595a5.036 5.036 0 0 0 1.819-1.667l-1.719-1.16c-.257.433-.621.79-1.056 1.038a2.856 2.856 0 0 1-1.426.373 2.541 2.541 0 0 1-1.457-.393 2.589 2.589 0 0 1-.987-1.154l6.74-2.822-.229-.58Zm-6.874 1.702a2.831 2.831 0 0 1 .7-2.049 2.743 2.743 0 0 1 1.935-.928c.383-.025.764.064 1.097.256.333.193.602.48.775.827l-4.507 1.894Zm-5.48 4.95h2.215V20.758h-2.215v15.002Zm-3.627-8.758h-.077a3.493 3.493 0 0 0-1.205-.86 3.455 3.455 0 0 0-1.449-.28 5.018 5.018 0 0 0-3.428 1.568 5.143 5.143 0 0 0-1.403 3.535c0 1.317.503 2.583 1.403 3.534a5.018 5.018 0 0 0 3.428 1.57c.5.013.995-.084 1.454-.284.458-.2.868-.5 1.2-.876h.077v.734c0 1.953-1.031 2.997-2.693 2.997a2.766 2.766 0 0 1-1.543-.517 2.82 2.82 0 0 1-.996-1.3l-1.929.812a4.852 4.852 0 0 0 1.78 2.199 4.761 4.761 0 0 0 2.688.816c2.597 0 4.793-1.546 4.793-5.316v-9.164h-2.1v.832Zm-2.54 7.056a3.052 3.052 0 0 1-1.999-.993 3.126 3.126 0 0 1-.808-2.1c0-.778.289-1.528.808-2.1a3.052 3.052 0 0 1 2-.993c.38.018.753.115 1.097.283a2.885 2.885 0 0 1 1.595 2.83 2.886 2.886 0 0 1-.701 2.116 2.789 2.789 0 0 1-1.992.957Zm28.896-13.3h-5.299V35.76h2.211v-5.683h3.088a4.557 4.557 0 0 0 1.84-.279 4.601 4.601 0 0 0 1.581-.992 4.672 4.672 0 0 0 1.065-1.544 4.727 4.727 0 0 0 0-3.689 4.671 4.671 0 0 0-1.065-1.544 4.602 4.602 0 0 0-1.581-.992 4.558 4.558 0 0 0-1.84-.278Zm.057 7.23h-3.145v-5.142h3.145a2.511 2.511 0 0 1 1.83.733 2.568 2.568 0 0 1 .763 1.838 2.568 2.568 0 0 1-1.605 2.391c-.314.126-.65.187-.988.18Zm13.668-2.154a4.111 4.111 0 0 0-2.312.552 4.178 4.178 0 0 0-1.634 1.744l1.963.83c.195-.362.49-.66.848-.855.359-.195.767-.28 1.173-.245a2.11 2.11 0 0 1 1.556.478c.436.362.713.884.769 1.452v.154a4.843 4.843 0 0 0-2.306-.579c-2.116 0-4.27 1.178-4.27 3.378a3.471 3.471 0 0 0 1.149 2.439 3.41 3.41 0 0 0 2.53.861 3.086 3.086 0 0 0 1.608-.343 3.138 3.138 0 0 0 1.213-1.124h.076v1.158h2.135v-5.751c0-2.663-1.963-4.15-4.498-4.15Zm-.267 8.221c-.725 0-1.735-.367-1.735-1.274 0-1.158 1.258-1.602 2.345-1.602a3.901 3.901 0 0 1 2.02.502 2.722 2.722 0 0 1-.876 1.686 2.66 2.66 0 0 1-1.754.688Zm12.542-7.893-2.535 6.504h-.076l-2.631-6.504h-2.382l3.945 9.09-2.249 5.056h2.306l6.081-14.146h-2.459Zm-19.919 9.597h2.211V20.76h-2.211V35.76Z" fill="#fff"/>
  <path d="M15.553 8.807a2.422 2.422 0 0 0-.549 1.686v26.539a2.42 2.42 0 0 0 .549 1.686l.087.086 14.683-14.866v-.351L15.64 8.72l-.087.087Z" fill="url(#a)"/>
  <path d="m35.218 28.895-4.894-4.957v-.351l4.895-4.956.11.063 5.8 3.336c1.656.953 1.656 2.512 0 3.465l-5.8 3.337-.111.063Z" fill="url(#b)"/>
  <path d="m35.329 28.831-5.006-5.069-14.77 14.956a1.912 1.912 0 0 0 2.463.074l17.313-9.961Z" fill="url(#c)"/>
  <path d="m35.329 18.694-17.314-9.96a1.912 1.912 0 0 0-2.463.073l14.771 14.955 5.006-5.068Z" fill="url(#d)"/>
  <path opacity=".2" d="m35.218 28.72-17.203 9.896a1.96 1.96 0 0 1-2.375.013l-.088.09.088.086a1.958 1.958 0 0 0 2.375-.014l17.314-9.96-.11-.111Z" fill="#fff"/>
  <path opacity=".12" d="M15.553 38.543a2.423 2.423 0 0 1-.549-1.686v.176c-.036.612.16 1.215.549 1.685l.088-.089-.088-.086ZM41.128 25.32l-5.909 3.4.11.111 5.8-3.336c.34-.15.636-.39.854-.694.219-.305.352-.663.388-1.038-.074.34-.224.657-.44.927a2.21 2.21 0 0 1-.803.63Z" fill="#fff"/>
  <path opacity=".25" d="m18.016 8.91 23.112 13.295c.313.144.588.36.803.63.216.27.366.588.44.927a2.12 2.12 0 0 0-.388-1.038 2.083 2.083 0 0 0-.855-.694L18.016 8.734c-1.657-.953-3.012-.162-3.012 1.76v.175c0-1.921 1.355-2.713 3.012-1.76Z" fill="#fff"/>
  <defs>
    <linearGradient id="a" x1="29.021" y1="10.213" x2="8.884" y2="30.102" gradientUnits="userSpaceOnUse">
      <stop stop-color="#00A0FF"/>
      <stop offset=".007" stop-color="#00A1FF"/>
      <stop offset=".26" stop-color="#00BEFF"/>
      <stop offset=".512" stop-color="#00D2FF"/>
      <stop offset=".76" stop-color="#00DFFF"/>
      <stop offset="1" stop-color="#00E3FF"/>
    </linearGradient>
    <linearGradient id="b" x1="43.285" y1="23.763" x2="14.607" y2="23.763" gradientUnits="userSpaceOnUse">
      <stop stop-color="#FFE000"/>
      <stop offset=".409" stop-color="#FFBD00"/>
      <stop offset=".775" stop-color="orange"/>
      <stop offset="1" stop-color="#FF9C00"/>
    </linearGradient>
    <linearGradient id="c" x1="32.609" y1="26.517" x2="5.301" y2="53.487" gradientUnits="userSpaceOnUse">
      <stop stop-color="#FF3A44"/>
      <stop offset="1" stop-color="#C31162"/>
    </linearGradient>
    <linearGradient id="d" x1="11.833" y1="-.027" x2="24.027" y2="12.016" gradientUnits="userSpaceOnUse">
      <stop stop-color="#32A071"/>
      <stop offset=".069" stop-color="#2DA771"/>
      <stop offset=".476" stop-color="#15CF74"/>
      <stop offset=".801" stop-color="#06E775"/>
      <stop offset="1" stop-color="#00F076"/>
    </linearGradient>
  </defs>
</svg>
