<svg width="161" height="31" fill="none" xmlns="http://www.w3.org/2000/svg">
  <path d="M.553.488a2.422 2.422 0 0 0-.549 1.686v26.54c-.036.611.16 1.215.549 1.685l.088.086L15.324 15.62v-.35L.64.4.553.488Z" fill="url(#a)"/>
  <path d="m20.218 20.576-4.894-4.957v-.35l4.895-4.957.11.063 5.8 3.336c1.656.953 1.656 2.512 0 3.466l-5.8 3.336-.111.063Z" fill="url(#b)"/>
  <path d="m20.33 20.512-5.006-5.069L.553 30.4a1.915 1.915 0 0 0 2.463.074l17.313-9.96Z" fill="url(#c)"/>
  <path d="M20.33 10.375 3.015.415A1.912 1.912 0 0 0 .553.487l14.77 14.956 5.006-5.07Z" fill="url(#d)"/>
  <path opacity=".2" d="M20.219 20.4 3.016 30.298a1.958 1.958 0 0 1-2.375.013l-.088.09.087.086h.001a1.957 1.957 0 0 0 2.375-.013l17.313-9.96-.11-.112Z" fill="#1E1F20"/>
  <path opacity=".12" d="M.553 30.224a2.423 2.423 0 0 1-.549-1.686v.176c-.036.612.16 1.215.549 1.686l.088-.09-.088-.086ZM26.128 17l-5.909 3.4.11.112 5.8-3.336c.34-.15.636-.39.854-.694.219-.305.353-.663.388-1.038-.073.34-.224.657-.44.927-.215.27-.49.486-.803.63Z" fill="#1E1F20"/>
  <path opacity=".25" d="m3.016.59 23.112 13.296c.313.144.588.36.804.63.215.27.366.588.439.928a2.12 2.12 0 0 0-.387-1.039 2.083 2.083 0 0 0-.856-.694L3.016.415C1.359-.538.004.254.004 2.175v.175C.004.429 1.36-.362 3.016.59Z" fill="#1E1F20"/>
  <path d="M45.447 5.536V2.392h2.232c.648 0 1.12.136 1.416.408.304.264.456.652.456 1.164 0 .512-.152.904-.456 1.176-.296.272-.768.404-1.416.396h-2.232Zm-1.14-4.104V10h1.14V6.496h2.616c.864.008 1.516-.212 1.956-.66.448-.448.672-1.072.672-1.872s-.224-1.42-.672-1.86c-.44-.448-1.092-.672-1.956-.672h-3.756Zm8.357 5.472c0-.376.048-.708.144-.996a2.23 2.23 0 0 1 .42-.744c.176-.2.38-.352.612-.456a1.881 1.881 0 0 1 1.5 0c.24.104.448.256.624.456s.312.448.408.744c.104.288.156.62.156.996s-.052.712-.156 1.008a2.096 2.096 0 0 1-.408.732c-.176.192-.384.34-.624.444a1.881 1.881 0 0 1-1.5 0 1.85 1.85 0 0 1-.612-.444 2.252 2.252 0 0 1-.42-.732 3.262 3.262 0 0 1-.144-1.008Zm-1.08 0c0 .456.064.88.192 1.272s.32.736.576 1.032c.256.288.572.516.948.684.376.16.808.24 1.296.24.496 0 .928-.08 1.296-.24a2.75 2.75 0 0 0 .948-.684c.256-.296.448-.64.576-1.032.128-.392.192-.816.192-1.272 0-.456-.064-.88-.192-1.272-.128-.4-.32-.744-.576-1.032a2.679 2.679 0 0 0-.948-.696c-.368-.168-.8-.252-1.296-.252-.488 0-.92.084-1.296.252-.376.168-.692.4-.948.696a2.829 2.829 0 0 0-.576 1.032 4.075 4.075 0 0 0-.192 1.272Zm7.85 1.14h-1.02c.017.384.097.712.24.984.145.264.337.48.577.648.24.16.516.276.828.348.312.072.64.108.984.108.312 0 .624-.032.936-.096.32-.056.604-.16.852-.312.256-.152.46-.352.612-.6.16-.248.24-.56.24-.936 0-.296-.06-.544-.18-.744a1.414 1.414 0 0 0-.456-.492 2.235 2.235 0 0 0-.648-.324 7.251 7.251 0 0 0-.744-.204 23.14 23.14 0 0 0-.72-.156 5.249 5.249 0 0 1-.648-.192 1.737 1.737 0 0 1-.48-.288.603.603 0 0 1-.18-.444c0-.16.04-.288.12-.384a.78.78 0 0 1 .312-.24c.128-.064.268-.108.42-.132.16-.024.316-.036.468-.036.168 0 .332.02.492.06.168.032.32.088.456.168a1 1 0 0 1 .492.816h1.02c-.024-.376-.104-.688-.24-.936a1.54 1.54 0 0 0-.552-.6 2.05 2.05 0 0 0-.78-.312 4.602 4.602 0 0 0-.972-.096c-.272 0-.548.036-.828.108-.272.064-.52.168-.744.312a1.74 1.74 0 0 0-.54.54 1.52 1.52 0 0 0-.204.804c0 .4.1.712.3.936.2.224.448.4.744.528.304.12.632.216.984.288.352.064.676.14.972.228.304.08.556.188.756.324.2.136.3.336.3.6a.778.778 0 0 1-.144.48.927.927 0 0 1-.372.276 1.763 1.763 0 0 1-.48.132 3.734 3.734 0 0 1-.504.036c-.208 0-.412-.02-.612-.06a1.887 1.887 0 0 1-.528-.192 1.18 1.18 0 0 1-.372-.372 1.184 1.184 0 0 1-.156-.576Zm6.793-4.248v-1.86h-1.02v1.86H64.15v.9h1.056v3.948c0 .288.028.52.084.696.056.176.14.312.252.408.12.096.272.164.456.204.192.032.42.048.684.048h.78v-.9h-.468a5.34 5.34 0 0 1-.396-.012.544.544 0 0 1-.228-.084.326.326 0 0 1-.12-.168 1.38 1.38 0 0 1-.024-.288V4.696h1.236v-.9h-1.236Zm6.677 2.508H69.34c.016-.24.068-.464.156-.672a1.79 1.79 0 0 1 .36-.564c.152-.16.332-.284.54-.372.216-.096.456-.144.72-.144.256 0 .488.048.696.144.216.088.4.212.552.372.16.152.284.336.372.552.096.216.152.444.168.684Zm.984 1.728H72.88c-.088.408-.272.712-.552.912-.272.2-.624.3-1.056.3-.336 0-.628-.056-.876-.168a1.752 1.752 0 0 1-.612-.444 1.818 1.818 0 0 1-.348-.648 2.515 2.515 0 0 1-.096-.78h4.644a4.76 4.76 0 0 0-.108-1.188 3.28 3.28 0 0 0-.456-1.152A2.587 2.587 0 0 0 72.544 4c-.36-.232-.816-.348-1.368-.348-.424 0-.816.08-1.176.24-.352.16-.66.384-.924.672a3.154 3.154 0 0 0-.6 1.02 3.733 3.733 0 0 0-.216 1.296c.016.472.084.908.204 1.308.128.4.316.744.564 1.032.248.288.552.512.912.672.368.16.8.24 1.296.24.704 0 1.288-.176 1.752-.528.464-.352.764-.876.9-1.572Zm1.897-1.08c0-.304.032-.6.096-.888a2.35 2.35 0 0 1 .312-.768c.144-.224.336-.404.576-.54.24-.136.532-.204.876-.204.352 0 .652.068.9.204.248.128.448.3.6.516.16.216.276.468.348.756a3.504 3.504 0 0 1 0 1.728 2.21 2.21 0 0 1-.324.756 1.781 1.781 0 0 1-.588.528c-.24.136-.532.204-.876.204-.328 0-.616-.064-.864-.192-.24-.128-.44-.3-.6-.516a2.474 2.474 0 0 1-.348-.732 3.408 3.408 0 0 1-.108-.852Zm4.8 3.048V1.432h-1.02v3.192h-.024a1.53 1.53 0 0 0-.42-.456 1.975 1.975 0 0 0-.516-.3 2.425 2.425 0 0 0-.552-.168 3.021 3.021 0 0 0-.516-.048c-.472 0-.888.088-1.248.264a2.53 2.53 0 0 0-.888.696 3.011 3.011 0 0 0-.528 1.02 4.523 4.523 0 0 0-.168 1.248c0 .44.06.856.18 1.248s.296.736.528 1.032c.24.296.536.532.888.708.36.176.78.264 1.26.264.432 0 .828-.076 1.188-.228.36-.152.624-.4.792-.744h.024V10h1.02Zm5.653-3.096c0-.376.048-.708.144-.996a2.23 2.23 0 0 1 .42-.744c.176-.2.38-.352.612-.456a1.881 1.881 0 0 1 1.5 0c.24.104.448.256.624.456s.312.448.408.744c.104.288.156.62.156.996s-.052.712-.156 1.008a2.096 2.096 0 0 1-.408.732c-.176.192-.384.34-.624.444a1.881 1.881 0 0 1-1.5 0 1.85 1.85 0 0 1-.612-.444 2.252 2.252 0 0 1-.42-.732 3.262 3.262 0 0 1-.144-1.008Zm-1.08 0c0 .456.064.88.192 1.272s.32.736.576 1.032c.256.288.572.516.948.684.376.16.808.24 1.296.24.496 0 .928-.08 1.296-.24a2.75 2.75 0 0 0 .948-.684c.256-.296.448-.64.576-1.032.128-.392.192-.816.192-1.272 0-.456-.064-.88-.192-1.272-.128-.4-.32-.744-.576-1.032a2.679 2.679 0 0 0-.948-.696c-.368-.168-.8-.252-1.296-.252-.488 0-.92.084-1.296.252-.376.168-.692.4-.948.696a2.829 2.829 0 0 0-.576 1.032 4.075 4.075 0 0 0-.192 1.272Zm7.227-3.108V10h1.02V6.496c0-.28.036-.536.108-.768.08-.24.196-.448.348-.624a1.53 1.53 0 0 1 .564-.408c.232-.096.504-.144.816-.144.392 0 .7.112.924.336.224.224.336.528.336.912V10h1.02V5.92c0-.336-.036-.64-.108-.912-.064-.28-.18-.52-.348-.72a1.677 1.677 0 0 0-.66-.468c-.272-.112-.612-.168-1.02-.168-.92 0-1.592.376-2.016 1.128h-.024v-.984h-.96Z" fill="#797982"/>
  <path d="M53.157 28h-1.12l-.266-1.176c-.467.532-.934.9-1.4 1.106-.467.205-1.004.308-1.61.308-.747 0-1.419-.135-2.016-.406a4.518 4.518 0 0 1-1.498-1.134 5.141 5.141 0 0 1-.952-1.666 6.296 6.296 0 0 1-.322-2.03c0-.71.107-1.381.322-2.016.224-.635.541-1.19.952-1.666.41-.476.91-.854 1.498-1.134.597-.28 1.27-.42 2.016-.42a5.21 5.21 0 0 1 1.54.224c.494.14.933.355 1.316.644.383.28.7.635.952 1.064.252.43.41.924.476 1.484h-1.708a2.075 2.075 0 0 0-.308-.854 2.064 2.064 0 0 0-.574-.63 2.544 2.544 0 0 0-.784-.378 3.247 3.247 0 0 0-.91-.126c-.532 0-.994.107-1.386.322a2.7 2.7 0 0 0-.938.868c-.243.355-.425.76-.546 1.218a5.864 5.864 0 0 0-.168 1.4c0 .476.056.943.168 1.4a4.1 4.1 0 0 0 .546 1.232c.242.355.555.64.938.854.392.215.854.322 1.386.322a3.37 3.37 0 0 0 1.19-.168c.345-.13.635-.313.868-.546.242-.243.424-.537.546-.882.121-.345.186-.728.196-1.148H48.9v-1.33h4.256V28Zm4.995.196c-.579 0-1.097-.093-1.554-.28a3.472 3.472 0 0 1-1.148-.798 3.525 3.525 0 0 1-.714-1.204 4.758 4.758 0 0 1-.238-1.54c0-.55.08-1.06.238-1.526.168-.467.406-.868.714-1.204.317-.336.7-.597 1.148-.784.457-.196.975-.294 1.554-.294.579 0 1.092.098 1.54.294.457.187.84.448 1.148.784.317.336.555.737.714 1.204.168.467.252.975.252 1.526 0 .56-.084 1.073-.252 1.54a3.29 3.29 0 0 1-1.862 2.002c-.448.187-.961.28-1.54.28Zm0-1.26c.355 0 .663-.075.924-.224.261-.15.476-.345.644-.588.168-.243.29-.513.364-.812a3.498 3.498 0 0 0 0-1.862 2.302 2.302 0 0 0-.364-.812 1.947 1.947 0 0 0-.644-.588 1.831 1.831 0 0 0-.924-.224c-.355 0-.663.075-.924.224-.261.15-.476.345-.644.588a2.502 2.502 0 0 0-.378.812 3.908 3.908 0 0 0 0 1.862c.084.299.21.57.378.812.168.243.383.439.644.588.261.15.57.224.924.224Zm8.299 1.26c-.579 0-1.097-.093-1.554-.28a3.473 3.473 0 0 1-1.148-.798 3.525 3.525 0 0 1-.714-1.204 4.76 4.76 0 0 1-.238-1.54c0-.55.08-1.06.238-1.526.168-.467.406-.868.714-1.204.317-.336.7-.597 1.148-.784.457-.196.975-.294 1.554-.294.578 0 1.092.098 1.54.294.457.187.84.448 1.148.784.317.336.555.737.714 1.204.168.467.252.975.252 1.526 0 .56-.084 1.073-.252 1.54a3.29 3.29 0 0 1-1.862 2.002c-.448.187-.962.28-1.54.28Zm0-1.26c.354 0 .662-.075.924-.224.261-.15.476-.345.644-.588a2.46 2.46 0 0 0 .364-.812 3.498 3.498 0 0 0 0-1.862 2.3 2.3 0 0 0-.364-.812 1.946 1.946 0 0 0-.644-.588 1.831 1.831 0 0 0-.924-.224c-.355 0-.663.075-.924.224-.262.15-.476.345-.644.588a2.502 2.502 0 0 0-.378.812 3.913 3.913 0 0 0 0 1.862c.084.299.21.57.378.812.168.243.382.439.644.588.261.15.57.224.924.224Zm11.673.686c0 1.092-.308 1.904-.924 2.436-.607.541-1.484.812-2.632.812-.364 0-.733-.037-1.106-.112a3.36 3.36 0 0 1-1.008-.378 2.457 2.457 0 0 1-.756-.7c-.206-.29-.327-.644-.364-1.064h1.596a1.17 1.17 0 0 0 .63.868c.158.084.33.135.518.154.186.028.382.042.588.042.644 0 1.115-.159 1.414-.476.298-.317.448-.775.448-1.372v-1.106H76.5a2.413 2.413 0 0 1-.924.938A2.423 2.423 0 0 1 74.33 28c-.58 0-1.074-.098-1.484-.294a2.997 2.997 0 0 1-1.008-.826 3.576 3.576 0 0 1-.574-1.218 5.711 5.711 0 0 1-.182-1.47c0-.485.074-.947.224-1.386.149-.439.364-.821.644-1.148.28-.336.62-.602 1.022-.798.41-.196.872-.294 1.386-.294.457 0 .877.098 1.26.294.382.187.676.485.882.896h.028v-.994h1.596v6.86Zm-3.542-.882c.354 0 .653-.07.896-.21.252-.15.452-.34.602-.574.158-.243.27-.513.336-.812.074-.308.112-.616.112-.924 0-.308-.038-.607-.112-.896a2.325 2.325 0 0 0-.35-.77 1.586 1.586 0 0 0-.602-.532c-.243-.13-.537-.196-.882-.196-.355 0-.654.075-.896.224a1.77 1.77 0 0 0-.588.588c-.15.233-.257.504-.322.812a4.178 4.178 0 0 0-.098.896c0 .299.037.593.112.882.074.28.186.532.336.756.158.224.354.406.588.546.242.14.532.21.868.21Zm5.19-8.736h1.596V28h-1.596v-9.996Zm8.305 5.74a2.428 2.428 0 0 0-.168-.728 1.706 1.706 0 0 0-.364-.602 1.582 1.582 0 0 0-.56-.42 1.55 1.55 0 0 0-.728-.168c-.28 0-.536.051-.77.154-.224.093-.42.229-.588.406a2.1 2.1 0 0 0-.392.602 2.229 2.229 0 0 0-.154.756h3.724Zm-3.724 1.05c0 .28.038.55.112.812a2.1 2.1 0 0 0 .364.686c.159.196.36.355.602.476.243.112.532.168.868.168.467 0 .84-.098 1.12-.294.29-.205.504-.509.644-.91h1.512a3.008 3.008 0 0 1-.434 1.05c-.205.308-.452.57-.742.784-.289.205-.616.36-.98.462a3.697 3.697 0 0 1-1.12.168c-.569 0-1.073-.093-1.512-.28a3.196 3.196 0 0 1-1.12-.784 3.47 3.47 0 0 1-.686-1.204 5.033 5.033 0 0 1-.224-1.54c0-.513.08-.999.238-1.456.168-.467.402-.873.7-1.218a3.379 3.379 0 0 1 1.106-.84c.43-.205.915-.308 1.456-.308.57 0 1.078.121 1.526.364.458.233.836.546 1.134.938.299.392.514.845.644 1.358.14.504.178 1.027.112 1.568h-5.32Zm10.654-6.79h4.41c.709 0 1.288.103 1.736.308.448.205.793.462 1.036.77s.406.644.49 1.008c.093.364.14.7.14 1.008 0 .308-.047.644-.14 1.008a2.537 2.537 0 0 1-.49.994c-.243.308-.588.565-1.036.77-.448.196-1.027.294-1.736.294h-2.66V28h-1.75v-9.996Zm1.75 4.732h2.562c.196 0 .397-.028.602-.084.205-.056.392-.145.56-.266.177-.13.317-.299.42-.504.112-.215.168-.48.168-.798 0-.327-.047-.597-.14-.812a1.234 1.234 0 0 0-.378-.504 1.303 1.303 0 0 0-.546-.266 2.96 2.96 0 0 0-.658-.07h-2.59v3.304Zm7.406-4.732h1.596V28h-1.596v-9.996Zm9.397 8.386c0 .196.023.336.07.42.056.084.159.126.308.126h.168c.065 0 .14-.01.224-.028v1.106a1.955 1.955 0 0 1-.224.056 2.236 2.236 0 0 1-.266.07 2.876 2.876 0 0 1-.518.056c-.327 0-.597-.065-.812-.196-.215-.13-.355-.36-.42-.686a2.816 2.816 0 0 1-1.176.672c-.457.14-.901.21-1.33.21-.327 0-.639-.047-.938-.14a2.514 2.514 0 0 1-.798-.378 2.082 2.082 0 0 1-.546-.658 2.128 2.128 0 0 1-.196-.938c0-.448.079-.812.238-1.092.168-.28.383-.5.644-.658.271-.159.569-.27.896-.336.336-.075.672-.13 1.008-.168.289-.056.565-.093.826-.112.261-.028.49-.07.686-.126.205-.056.364-.14.476-.252.121-.121.182-.299.182-.532a.79.79 0 0 0-.154-.504.864.864 0 0 0-.364-.294 1.29 1.29 0 0 0-.476-.14 3.23 3.23 0 0 0-.504-.042c-.448 0-.817.093-1.106.28-.289.187-.453.476-.49.868h-1.596c.028-.467.14-.854.336-1.162.196-.308.443-.555.742-.742a3.138 3.138 0 0 1 1.036-.392 6.129 6.129 0 0 1 1.176-.112c.355 0 .705.037 1.05.112.345.075.653.196.924.364.28.168.504.387.672.658.168.261.252.583.252.966v3.724Zm-1.596-2.016a1.995 1.995 0 0 1-.896.294c-.355.028-.709.075-1.064.14-.168.028-.331.07-.49.126a1.263 1.263 0 0 0-.42.21.915.915 0 0 0-.294.35c-.065.14-.098.313-.098.518 0 .177.051.327.154.448.103.121.224.22.364.294.149.065.308.112.476.14.177.028.336.042.476.042.177 0 .369-.023.574-.07.205-.047.397-.126.574-.238a1.53 1.53 0 0 0 .462-.42c.121-.177.182-.392.182-.644v-1.19Zm2.515-3.612h1.75l1.89 5.404h.028l1.834-5.404h1.666l-2.814 7.63c-.13.327-.261.64-.392.938-.121.299-.275.56-.462.784a1.825 1.825 0 0 1-.672.546c-.27.14-.616.21-1.036.21-.373 0-.742-.028-1.106-.084v-1.344c.131.019.257.037.378.056.122.028.248.042.378.042.187 0 .341-.023.462-.07a.673.673 0 0 0 .294-.21c.084-.084.154-.187.21-.308.056-.121.108-.261.154-.42l.182-.56-2.744-7.21Zm13.327 3.906c0 .383.065.71.196.98.13.27.312.495.546.672.233.168.499.294.798.378.308.075.639.112.994.112.382 0 .709-.042.98-.126.27-.093.49-.21.658-.35.168-.14.289-.299.364-.476.074-.187.112-.373.112-.56 0-.383-.089-.663-.266-.84a1.398 1.398 0 0 0-.56-.392c-.355-.13-.77-.252-1.246-.364-.467-.121-1.046-.275-1.736-.462a3.978 3.978 0 0 1-1.078-.434 2.698 2.698 0 0 1-.672-.616 2.237 2.237 0 0 1-.364-.714 3.026 3.026 0 0 1-.098-.77c0-.504.102-.938.308-1.302.214-.373.494-.681.84-.924.345-.243.737-.42 1.176-.532a4.965 4.965 0 0 1 1.33-.182c.522 0 1.012.07 1.47.21.466.13.872.331 1.218.602.354.27.634.607.84 1.008.205.392.308.85.308 1.372h-1.75c-.047-.644-.266-1.097-.658-1.358-.392-.27-.892-.406-1.498-.406a2.95 2.95 0 0 0-.63.07 1.76 1.76 0 0 0-.588.21 1.277 1.277 0 0 0-.448.392 1.112 1.112 0 0 0-.168.63c0 .355.107.635.322.84.224.196.513.345.868.448.037.01.182.051.434.126a69.155 69.155 0 0 1 1.792.476c.308.075.527.13.658.168.326.103.611.243.854.42.242.177.443.383.602.616.168.224.289.467.364.728.084.261.126.523.126.784 0 .56-.117 1.04-.35 1.442a2.869 2.869 0 0 1-.896.966 3.823 3.823 0 0 1-1.274.546 5.877 5.877 0 0 1-1.456.182c-.57 0-1.106-.07-1.61-.21a3.766 3.766 0 0 1-1.316-.644 3.16 3.16 0 0 1-.896-1.106c-.224-.457-.341-.994-.35-1.61h1.75Zm6.978-3.906h1.204v-2.17h1.596v2.17h1.442v1.19h-1.442v3.864c0 .168.004.313.014.434a.898.898 0 0 0 .098.308.55.55 0 0 0 .238.196c.102.037.242.056.42.056h.336a2.1 2.1 0 0 0 .336-.056v1.232l-.518.056a4.685 4.685 0 0 1-.518.028c-.42 0-.761-.037-1.022-.112a1.509 1.509 0 0 1-.602-.35 1.347 1.347 0 0 1-.294-.588 4.8 4.8 0 0 1-.084-.798v-4.27h-1.204v-1.19Zm8.708 7.434c-.579 0-1.097-.093-1.554-.28a3.47 3.47 0 0 1-1.148-.798 3.525 3.525 0 0 1-.714-1.204 4.75 4.75 0 0 1-.238-1.54c0-.55.079-1.06.238-1.526.168-.467.406-.868.714-1.204.317-.336.7-.597 1.148-.784.457-.196.975-.294 1.554-.294.578 0 1.092.098 1.54.294.457.187.84.448 1.148.784.317.336.555.737.714 1.204.168.467.252.975.252 1.526 0 .56-.084 1.073-.252 1.54a3.294 3.294 0 0 1-1.862 2.002c-.448.187-.962.28-1.54.28Zm0-1.26c.354 0 .662-.075.924-.224a1.95 1.95 0 0 0 .644-.588 2.47 2.47 0 0 0 .364-.812 3.498 3.498 0 0 0 0-1.862 2.307 2.307 0 0 0-.364-.812 1.95 1.95 0 0 0-.644-.588 1.835 1.835 0 0 0-.924-.224 1.83 1.83 0 0 0-1.568.812 2.502 2.502 0 0 0-.378.812 3.892 3.892 0 0 0 0 1.862c.084.299.21.57.378.812a1.83 1.83 0 0 0 1.568.812Zm4.981-6.174h1.498v1.4h.028a1.66 1.66 0 0 1 .266-.574c.14-.187.303-.355.49-.504.196-.159.41-.285.644-.378.233-.093.471-.14.714-.14a3.28 3.28 0 0 1 .602.042v1.54a3.982 3.982 0 0 0-.35-.042 2.037 2.037 0 0 0-.336-.028c-.271 0-.528.056-.77.168a1.658 1.658 0 0 0-.616.476 2.23 2.23 0 0 0-.42.77 3.353 3.353 0 0 0-.154 1.064V28h-1.596v-7.238Zm9.645 2.982a2.392 2.392 0 0 0-.168-.728 1.702 1.702 0 0 0-.364-.602 1.58 1.58 0 0 0-.56-.42 1.547 1.547 0 0 0-.728-.168c-.28 0-.536.051-.77.154-.224.093-.42.229-.588.406a2.119 2.119 0 0 0-.392.602 2.25 2.25 0 0 0-.154.756h3.724Zm-3.724 1.05c0 .28.038.55.112.812.084.261.206.49.364.686.159.196.36.355.602.476.243.112.532.168.868.168.467 0 .84-.098 1.12-.294.29-.205.504-.509.644-.91h1.512a2.997 2.997 0 0 1-.434 1.05 3.11 3.11 0 0 1-.742.784c-.289.205-.616.36-.98.462a3.694 3.694 0 0 1-1.12.168c-.569 0-1.073-.093-1.512-.28a3.201 3.201 0 0 1-1.12-.784 3.484 3.484 0 0 1-.686-1.204 5.042 5.042 0 0 1-.224-1.54c0-.513.08-.999.238-1.456.168-.467.402-.873.7-1.218a3.382 3.382 0 0 1 1.106-.84c.43-.205.915-.308 1.456-.308.57 0 1.078.121 1.526.364a3.26 3.26 0 0 1 1.134.938c.299.392.514.845.644 1.358.14.504.178 1.027.112 1.568h-5.32Z" fill="#000"/>
  <defs>
    <linearGradient id="a" x1="14.022" y1="1.894" x2="-6.116" y2="21.783" gradientUnits="userSpaceOnUse">
      <stop stop-color="#00A0FF"/>
      <stop offset=".007" stop-color="#00A1FF"/>
      <stop offset=".26" stop-color="#00BEFF"/>
      <stop offset=".512" stop-color="#00D2FF"/>
      <stop offset=".76" stop-color="#00DFFF"/>
      <stop offset="1" stop-color="#00E3FF"/>
    </linearGradient>
    <linearGradient id="b" x1="28.285" y1="15.444" x2="-.393" y2="15.444" gradientUnits="userSpaceOnUse">
      <stop stop-color="#FFE000"/>
      <stop offset=".409" stop-color="#FFBD00"/>
      <stop offset=".775" stop-color="orange"/>
      <stop offset="1" stop-color="#FF9C00"/>
    </linearGradient>
    <linearGradient id="c" x1="17.609" y1="18.198" x2="-9.698" y2="45.168" gradientUnits="userSpaceOnUse">
      <stop stop-color="#FF3A44"/>
      <stop offset="1" stop-color="#C31162"/>
    </linearGradient>
    <linearGradient id="d" x1="-3.166" y1="-8.346" x2="9.028" y2="3.697" gradientUnits="userSpaceOnUse">
      <stop stop-color="#32A071"/>
      <stop offset=".069" stop-color="#2DA771"/>
      <stop offset=".476" stop-color="#15CF74"/>
      <stop offset=".801" stop-color="#06E775"/>
      <stop offset="1" stop-color="#00F076"/>
    </linearGradient>
  </defs>
</svg>
