<svg width="40" height="40" fill="none" xmlns="http://www.w3.org/2000/svg">
  <path d="M19.44 2.151a.625.625 0 0 1 1.12 0l4.874 9.875a.625.625 0 0 0 .47.342l10.898 1.583a.625.625 0 0 1 .346 1.066l-7.885 7.687a.625.625 0 0 0-.18.553l1.862 10.854c.087.51-.449.9-.907.658l-9.747-5.124a.625.625 0 0 0-.582 0L9.962 34.77a.625.625 0 0 1-.907-.658l1.862-10.854a.625.625 0 0 0-.18-.553l-7.885-7.687a.625.625 0 0 1 .346-1.066l10.897-1.583a.625.625 0 0 0 .471-.342l4.873-9.875Z" fill="#F0F8E9" stroke="#239F0F" stroke-width="1.5"/>
  <path stroke="#292F2C" stroke-width="1.5" stroke-linecap="round" d="m7.467 2.969 1.752 1.752M1.46 25.724l2.325-.856M38.522 25.724l-2.324-.856M30.938 4.721l1.751-1.752M19.25 38.852v-2.477"/>
</svg>
