<svg width="14" height="10" viewBox="0 0 14 10" fill="none" xmlns="http://www.w3.org/2000/svg">
<path d="M1.75495 0.71384H0.374591C0.254949 0.71384 0.188877 0.851341 0.262091 0.944199L6.54959 8.9942C6.60278 9.06259 6.67089 9.11794 6.74872 9.15601C6.82656 9.19408 6.91206 9.21387 6.9987 9.21387C7.08534 9.21387 7.17084 9.19408 7.24868 9.15601C7.32651 9.11794 7.39462 9.06259 7.44781 8.9942L13.7353 0.944199C13.8085 0.849555 13.7425 0.71384 13.6228 0.71384H12.2424C12.155 0.71384 12.071 0.754911 12.0175 0.822769L6.99959 7.25134L1.97995 0.822769C1.92638 0.754911 1.84245 0.71384 1.75495 0.71384Z" fill="#797982"/>
</svg>
