<svg width="40" height="40" fill="none" xmlns="http://www.w3.org/2000/svg">
  <path d="M2.856 10.456v26.4l11.136-6.6 12.728 6.6 11.136-6.6v-26.4l-11.136 6.6-12.728-6.6-11.136 6.6Z" fill="#F0F8E9"/>
  <path fill-rule="evenodd" clip-rule="evenodd" d="m13.833 3 .069.003a.75.75 0 0 1 .41.08l12.347 6.313a.748.748 0 0 1 .293-.05l10.683-6.244a.75.75 0 0 1 1.128.648v26.228a.75.75 0 0 1-.371.648l-10.847 6.338a.75.75 0 0 1-.684.318.75.75 0 0 1-.41-.079l-12.347-6.314a.747.747 0 0 1-.271.05h-.021L3.128 37.183A.75.75 0 0 1 2 36.535V10.307a.75.75 0 0 1 .372-.647L13.217 3.32A.749.749 0 0 1 13.833 3ZM27.68 35.148l9.583-5.6V5.057l-9.583 5.6v24.491Zm-1.5-24.312v24.543l-11.597-5.93V4.906l11.597 5.93ZM3.5 10.737l9.583-5.6v24.491l-9.583 5.6v-24.49Z" fill="#239F0F"/>
  <path d="M20.188 24.494a.2.2 0 0 1 .222.277l-6.06 13.755c-.082.183-.351.147-.381-.05l-1.185-7.681a.2.2 0 0 0-.125-.157l-7.244-2.815c-.186-.072-.163-.343.033-.382l14.74-2.947Z" fill="#fff" stroke="#292F2C" stroke-width="1.5"/>
</svg>
