<svg width="40" height="40" fill="none" xmlns="http://www.w3.org/2000/svg">
  <path fill-rule="evenodd" clip-rule="evenodd" d="M20.417 33.925C22.534 31.941 32 22.587 32 13.903 32 7.329 26.627 2 20 2S8 7.33 8 13.903c0 7.946 9.509 17.914 11.598 20.008a.58.58 0 0 0 .819.014ZM20 19.539a6.462 6.462 0 1 0 0-12.924 6.462 6.462 0 0 0 0 12.923Z" fill="#F0F8E9"/>
  <path d="m20.417 33.925.512.547-.512-.547Zm-.82-.014-.53.53.53-.53ZM31.25 13.903c0 4.099-2.249 8.446-4.857 12.087-2.591 3.615-5.448 6.412-6.49 7.388l1.027 1.094c1.076-1.008 4.01-3.88 6.682-7.609 2.654-3.704 5.138-8.375 5.138-12.96h-1.5ZM20 2.75c6.219 0 11.25 4.999 11.25 11.153h1.5C32.75 6.909 27.036 1.25 20 1.25v1.5ZM8.75 13.903C8.75 7.749 13.781 2.75 20 2.75v-1.5c-7.036 0-12.75 5.66-12.75 12.653h1.5ZM20.128 33.38c-1.03-1.033-3.896-4.014-6.5-7.711-2.627-3.732-4.878-8.044-4.878-11.767h-1.5c0 4.223 2.503 8.868 5.152 12.63 2.673 3.797 5.606 6.847 6.665 7.907l1.061-1.059Zm-.224-.003a.165.165 0 0 1 .113-.04c.05 0 .09.022.111.043l-1.061 1.06a1.33 1.33 0 0 0 1.863.031l-1.026-1.094Zm5.807-20.301A5.712 5.712 0 0 1 20 18.788v1.5a7.212 7.212 0 0 0 7.211-7.211h-1.5ZM20 7.365a5.712 5.712 0 0 1 5.711 5.712h1.5A7.212 7.212 0 0 0 20 5.865v1.5Zm-5.712 5.712A5.711 5.711 0 0 1 20 7.365v-1.5a7.212 7.212 0 0 0-7.212 7.212h1.5ZM20 18.788a5.712 5.712 0 0 1-5.712-5.711h-1.5A7.212 7.212 0 0 0 20 20.288v-1.5Z" fill="#239F0F"/>
  <path d="M26 33.764c1.841.55 3 1.347 3 2.236 0 1.657-4.03 3-9 3s-9-1.343-9-3c0-.889 1.159-1.687 3-2.236" stroke="#292F2C" stroke-width="1.5" stroke-linecap="round"/>
</svg>
