<svg width="176" height="48" fill="none" xmlns="http://www.w3.org/2000/svg">
  <g clip-path="url(#a)">
    <path d="M38.742 32.24c2.739 0 4.959-2.51 4.959-5.607 0-3.096-2.22-5.607-4.959-5.607-2.738 0-4.958 2.51-4.958 5.607 0 3.097 2.22 5.608 4.959 5.608Z" fill="url(#b)"/>
    <path d="M29.965 4.547a4.06 4.06 0 0 0-4.061 4.06v.006c0 .282-.19.532-.465.6a2.956 2.956 0 0 0-2.221 3.222.598.598 0 0 1-.378.624 4.589 4.589 0 0 0 .364 8.665c.011.118.246 2.185 2.05 3.05 1.35.645 2.652.175 2.958.054a3.932 3.932 0 0 0 1.752-1.395 3.932 3.932 0 0 0 1.752 1.395c.307.121 1.608.591 2.958-.055 1.805-.864 2.04-2.931 2.05-3.049a4.59 4.59 0 0 0 .365-8.665.598.598 0 0 1-.378-.624 2.956 2.956 0 0 0-2.222-3.222.616.616 0 0 1-.464-.6v-.005a4.06 4.06 0 0 0-4.06-4.061Z" fill="url(#c)"/>
    <path d="M23.707 22.67c0 5.015-3.637 9.08-8.123 9.08-4.486 0-8.123-4.065-8.123-9.08s3.637-18.123 8.123-18.123c4.486 0 8.123 13.108 8.123 18.123Z" fill="url(#d)"/>
    <path d="M43.702 40.24H39.29v-7.483c2.78-.308 4.958-2.937 4.958-6.124 0-3.134-2.107-5.727-4.822-6.105a5.12 5.12 0 0 0 1.054-2.384.547.547 0 0 0-1.08-.173 4.051 4.051 0 0 1-2.615 3.158.994.994 0 0 0-.635.742c-.102.527-.472 1.816-1.712 2.409-1.07.512-2.119.198-2.52.04a3.338 3.338 0 0 1-1.406-1.067V20.89l2.39-2.39a.547.547 0 0 0-.774-.773l-1.616 1.616v-3.621a.547.547 0 1 0-1.094 0v2.571l-1.615-1.615a.547.547 0 0 0-.774.773l2.39 2.39v3.412c-.282.362-.734.8-1.407 1.067-.401.158-1.45.472-2.52-.04a2.88 2.88 0 0 1-1.246-1.172c.095-2.417-.604-5.95-1.643-9.335.142-.076.288-.145.438-.205.487-.191.783-.685.72-1.198a2.402 2.402 0 0 1 1.81-2.626c.519-.128.88-.593.88-1.136a3.518 3.518 0 0 1 3.515-3.514 3.52 3.52 0 0 1 3.513 3.52c0 .537.362 1.002.88 1.13a2.407 2.407 0 0 1 1.81 2.624 1.144 1.144 0 0 0 .72 1.2 4.065 4.065 0 0 1 2.265 2.237.547.547 0 1 0 1.013-.413 5.164 5.164 0 0 0-2.877-2.841c-.022-.009-.038-.031-.035-.052a3.5 3.5 0 0 0-2.634-3.817c-.027-.007-.048-.036-.048-.074A4.613 4.613 0 0 0 29.965 4a4.614 4.614 0 0 0-4.608 4.613c0 .033-.02.062-.048.069a3.494 3.494 0 0 0-2.633 3.819c.011.094-.337.173-.413.218a36.955 36.955 0 0 0-.422-1.184C19.496 5.307 17.144 4 15.585 4c-2.721 0-4.803 3.835-6.07 7.052a.547.547 0 1 0 1.018.4c1.591-4.04 3.433-6.358 5.052-6.358 1.691 0 3.599 2.488 5.232 6.827 1.54 4.087 2.344 8.5 2.344 10.75 0 4.498-3.106 8.194-7.03 8.51v-6.529l2.283-2.283a.547.547 0 0 0-.773-.773l-1.509 1.509v-2.287a.547.547 0 1 0-1.094 0v4.605l-1.509-1.51a.547.547 0 0 0-.773.774l2.282 2.282v4.212c-3.923-.316-7.03-4.012-7.03-8.51 0-2.114.68-5.675 1.692-8.863a.547.547 0 0 0-1.042-.33c-1.059 3.335-1.743 6.943-1.743 9.192 0 5.105 3.596 9.293 8.123 9.608v7.962H7.462a.547.547 0 1 0 0 1.093h36.24a.547.547 0 1 0 0-1.093Zm-14.284 0H16.132v-7.962c3.932-.273 7.161-3.47 7.942-7.65.281.258.596.471.946.638 1.457.698 2.86.282 3.395.07.389-.154.72-.351 1.003-.563V40.24Zm8.778 0h-7.684V24.773c.283.212.614.409 1.004.563.313.124.922.318 1.666.318.041 0 .056.649.056.98 0 3.186 2.178 5.815 4.958 6.123v7.483Zm.547-13.984a.547.547 0 0 0-.547.547v4.85c-2.175-.31-3.864-2.442-3.864-5.02 0-.4.041-.797.122-1.182 1.674-.56 2.636-2.524 2.758-3.313.37-.14.72-.32 1.042-.533 2.655-.343 4.9 2.069 4.9 5.028 0 2.578-1.689 4.71-3.864 5.02v-1.617l1.73-1.73a.547.547 0 1 0-.774-.773l-.956.956v-1.686a.547.547 0 0 0-.547-.547Z" fill="#141414"/>
  </g>
  <path d="M65.362 15.358v7.434h4.497c1.241 0 2.201-.325 2.879-.974.678-.65 1.017-1.566 1.017-2.75 0-1.156-.353-2.063-1.06-2.722-.707-.658-1.68-.988-2.922-.988h-4.411Zm0 10.026v7.95h-3.209V12.664h8.007c2.12 0 3.8.573 5.041 1.72 1.242 1.136 1.863 2.668 1.863 4.597 0 1.404-.359 2.635-1.075 3.695-.706 1.05-1.685 1.786-2.936 2.206l4.626 8.45h-3.695l-4.21-7.949h-4.412ZM85.07 31.142c1.089 0 2-.33 2.736-.988.745-.669 1.117-1.49 1.117-2.464v-1.189l-3.71.23c-.926.066-1.642.296-2.148.687-.497.382-.745.898-.745 1.547 0 .659.248 1.189.745 1.59.506.391 1.174.587 2.005.587Zm-.86 2.45c-1.48 0-2.687-.42-3.623-1.261-.926-.84-1.39-1.934-1.39-3.28 0-1.318.488-2.363 1.462-3.137.973-.783 2.353-1.222 4.139-1.318l4.125-.243v-1.16c0-.84-.267-1.495-.802-1.963-.535-.477-1.275-.716-2.22-.716-.879 0-1.595.196-2.149.588-.544.391-.888.93-1.031 1.618h-2.922c.086-1.394.688-2.53 1.805-3.409 1.117-.878 2.588-1.317 4.411-1.317 1.824 0 3.275.448 4.355 1.346 1.088.898 1.632 2.1 1.632 3.61v10.383h-2.965v-2.477h-.071c-.43.83-1.084 1.494-1.962 1.99-.87.497-1.8.745-2.793.745ZM100.668 33.591c-1.91 0-3.443-.706-4.598-2.12-1.155-1.413-1.733-3.303-1.733-5.671 0-2.369.573-4.254 1.719-5.658 1.155-1.413 2.683-2.12 4.583-2.12 1.06 0 2.005.248 2.836.745a4.785 4.785 0 0 1 1.891 2.005h.057v-8.107h3.108v20.668h-3.008V30.77h-.057a5.066 5.066 0 0 1-1.934 2.076c-.831.497-1.785.745-2.864.745Zm.816-12.962c-1.222 0-2.191.468-2.907 1.404-.717.926-1.075 2.181-1.075 3.767 0 1.594.358 2.855 1.075 3.78.716.927 1.685 1.39 2.907 1.39 1.194 0 2.153-.468 2.879-1.403.726-.946 1.088-2.201 1.088-3.767 0-1.557-.362-2.808-1.088-3.753-.726-.945-1.685-1.418-2.879-1.418ZM111.396 33.333v-1.99l8.035-10.556v-.058h-7.978v-2.463h11.53v2.12l-7.835 10.427v.057h7.921v2.463h-11.673ZM125.933 33.333V18.266h3.094v15.067h-3.094Zm2.822-17.789a1.762 1.762 0 0 1-1.275.516c-.496 0-.921-.172-1.275-.516a1.7 1.7 0 0 1-.515-1.246c0-.496.172-.916.515-1.26a1.765 1.765 0 0 1 1.275-.516c.506 0 .931.172 1.275.516.353.344.53.764.53 1.26 0 .487-.177.903-.53 1.246ZM132.192 33.333V18.266h2.951V20.8h.072a4.356 4.356 0 0 1 1.647-2.034c.754-.506 1.632-.76 2.635-.76 1.041 0 1.924.259 2.65.774.735.516 1.255 1.242 1.561 2.177h.072a4.66 4.66 0 0 1 1.833-2.162c.84-.526 1.795-.788 2.865-.788 1.489 0 2.683.454 3.58 1.36.898.908 1.347 2.11 1.347 3.61v10.355h-3.108v-9.61c0-.974-.253-1.729-.76-2.263-.496-.535-1.203-.802-2.119-.802-.917 0-1.667.305-2.249.916-.573.611-.859 1.394-.859 2.35v9.41h-3.037v-9.84c0-.87-.258-1.557-.773-2.063-.516-.516-1.208-.773-2.077-.773-.917 0-1.671.32-2.263.96-.583.63-.874 1.432-.874 2.405v9.31h-3.094ZM161.669 31.142c1.088 0 2-.33 2.736-.988.744-.669 1.117-1.49 1.117-2.464v-1.189l-3.71.23c-.926.066-1.642.296-2.148.687-.497.382-.745.898-.745 1.547 0 .659.248 1.189.745 1.59.506.391 1.174.587 2.005.587Zm-.859 2.45c-1.48 0-2.688-.42-3.624-1.261-.926-.84-1.389-1.934-1.389-3.28 0-1.318.487-2.363 1.46-3.137.974-.783 2.354-1.222 4.14-1.318l4.125-.243v-1.16c0-.84-.268-1.495-.802-1.963-.535-.477-1.275-.716-2.22-.716-.879 0-1.595.196-2.149.588-.544.391-.888.93-1.031 1.618h-2.922c.086-1.394.688-2.53 1.805-3.409 1.117-.878 2.587-1.317 4.411-1.317 1.824 0 3.275.448 4.354 1.346 1.089.898 1.633 2.1 1.633 3.61v10.383h-2.965v-2.477h-.071c-.43.83-1.084 1.494-1.962 1.99-.869.497-1.8.745-2.793.745Z" fill="#141414"/>
  <defs>
    <linearGradient id="b" x1="33.801" y1="26.72" x2="42.916" y2="26.72" gradientUnits="userSpaceOnUse">
      <stop stop-color="#6AC5A9"/>
      <stop offset="1" stop-color="#52C41A"/>
    </linearGradient>
    <linearGradient id="c" x1="19.966" y1="14.986" x2="38.41" y2="14.986" gradientUnits="userSpaceOnUse">
      <stop stop-color="#6AC5A9"/>
      <stop offset="1" stop-color="#52C41A"/>
    </linearGradient>
    <linearGradient id="d" x1="7.488" y1="18.359" x2="22.422" y2="18.359" gradientUnits="userSpaceOnUse">
      <stop stop-color="#6AC5A9"/>
      <stop offset="1" stop-color="#52C41A"/>
    </linearGradient>
    <clipPath id="a">
      <path fill="#fff" transform="translate(6.915 4)" d="M0 0h37.333v37.333H0z"/>
    </clipPath>
  </defs>
</svg>
