<svg width="39" height="38" fill="none" xmlns="http://www.w3.org/2000/svg">
  <g clip-path="url(#a)">
    <path d="M32.742 28.24c2.739 0 4.959-2.51 4.959-5.607 0-3.096-2.22-5.607-4.959-5.607-2.738 0-4.958 2.51-4.958 5.607 0 3.097 2.22 5.608 4.959 5.608Z" fill="url(#b)"/>
    <path d="M23.965.547a4.06 4.06 0 0 0-4.061 4.06v.006c0 .282-.19.532-.465.6a2.956 2.956 0 0 0-2.221 3.222.598.598 0 0 1-.378.624 4.588 4.588 0 0 0 .364 8.665c.011.118.246 2.185 2.05 3.05 1.35.645 2.652.175 2.958.054a3.932 3.932 0 0 0 1.752-1.395 3.932 3.932 0 0 0 1.752 1.395c.307.121 1.608.591 2.958-.055 1.805-.864 2.04-2.931 2.05-3.049a4.59 4.59 0 0 0 .365-8.665.599.599 0 0 1-.378-.624 2.956 2.956 0 0 0-2.222-3.222.616.616 0 0 1-.464-.6v-.005a4.06 4.06 0 0 0-4.06-4.061Z" fill="url(#c)"/>
    <path d="M17.707 18.67c0 5.015-3.637 9.08-8.123 9.08-4.486 0-8.123-4.065-8.123-9.08S5.098.547 9.584.547c4.486 0 8.123 13.108 8.123 18.123Z" fill="url(#d)"/>
    <path d="M37.702 36.24H33.29v-7.483c2.78-.308 4.958-2.937 4.958-6.124 0-3.134-2.107-5.727-4.822-6.105a5.12 5.12 0 0 0 1.054-2.384.547.547 0 0 0-1.08-.173 4.051 4.051 0 0 1-2.615 3.158.994.994 0 0 0-.635.742c-.102.527-.472 1.816-1.712 2.409-1.07.512-2.118.198-2.52.04a3.338 3.338 0 0 1-1.406-1.067V16.89l2.39-2.39a.547.547 0 0 0-.774-.773l-1.616 1.616v-3.621a.547.547 0 1 0-1.094 0v2.571l-1.615-1.615a.547.547 0 0 0-.774.773l2.39 2.39v3.412c-.282.362-.734.8-1.407 1.067-.401.158-1.45.472-2.52-.04a2.88 2.88 0 0 1-1.246-1.172c.095-2.417-.604-5.95-1.643-9.335.142-.076.288-.145.438-.205.487-.191.783-.685.72-1.198a2.402 2.402 0 0 1 1.81-2.626c.519-.128.88-.593.88-1.136a3.518 3.518 0 0 1 3.515-3.514 3.52 3.52 0 0 1 3.513 3.52c0 .537.362 1.002.88 1.13a2.407 2.407 0 0 1 1.81 2.624 1.144 1.144 0 0 0 .72 1.2 4.065 4.065 0 0 1 2.265 2.237.547.547 0 1 0 1.013-.413A5.164 5.164 0 0 0 31.29 8.55c-.022-.009-.038-.031-.035-.052a3.5 3.5 0 0 0-2.633-3.817c-.028-.007-.049-.036-.049-.074A4.613 4.613 0 0 0 23.965 0a4.614 4.614 0 0 0-4.608 4.613c0 .033-.02.062-.048.069A3.494 3.494 0 0 0 16.676 8.5c.011.095-.337.174-.413.22a36.896 36.896 0 0 0-.422-1.185C13.496 1.307 11.145 0 9.585 0c-2.721 0-4.803 3.835-6.07 7.051a.547.547 0 0 0 1.018.401c1.591-4.04 3.433-6.358 5.052-6.358 1.691 0 3.599 2.488 5.232 6.827 1.54 4.087 2.344 8.5 2.344 10.75 0 4.498-3.106 8.194-7.03 8.51v-6.529l2.283-2.283a.547.547 0 0 0-.773-.773l-1.509 1.509v-2.287a.547.547 0 1 0-1.094 0v4.605l-1.509-1.51a.547.547 0 0 0-.773.774l2.282 2.282v4.212c-3.923-.316-7.03-4.012-7.03-8.51 0-2.114.68-5.675 1.692-8.863a.547.547 0 0 0-1.042-.33C1.599 12.812.915 16.42.915 18.67c0 5.105 3.596 9.293 8.123 9.608v7.962H1.462a.547.547 0 1 0 0 1.093h36.24a.547.547 0 1 0 0-1.093Zm-14.284 0H10.132v-7.962c3.932-.273 7.161-3.47 7.942-7.65.281.258.596.471.946.638 1.457.698 2.86.282 3.395.07.389-.154.72-.351 1.003-.563V36.24Zm8.778 0h-7.684V20.773c.283.212.614.409 1.004.563.313.124.922.318 1.666.318.042 0 .056.649.056.98 0 3.186 2.178 5.815 4.958 6.123v7.483Zm.547-13.984a.547.547 0 0 0-.547.547v4.85c-2.175-.31-3.864-2.442-3.864-5.02 0-.4.041-.797.122-1.182 1.674-.56 2.636-2.524 2.758-3.313.37-.14.72-.32 1.042-.533 2.655-.343 4.9 2.069 4.9 5.028 0 2.578-1.689 4.71-3.864 5.02v-1.617l1.73-1.73a.547.547 0 1 0-.774-.773l-.956.956v-1.686a.547.547 0 0 0-.547-.547Z" fill="#141414"/>
  </g>
  <defs>
    <linearGradient id="b" x1="27.801" y1="22.72" x2="36.916" y2="22.72" gradientUnits="userSpaceOnUse">
      <stop stop-color="#6AC5A9"/>
      <stop offset="1" stop-color="#52C41A"/>
    </linearGradient>
    <linearGradient id="c" x1="13.966" y1="10.986" x2="32.41" y2="10.986" gradientUnits="userSpaceOnUse">
      <stop stop-color="#6AC5A9"/>
      <stop offset="1" stop-color="#52C41A"/>
    </linearGradient>
    <linearGradient id="d" x1="1.488" y1="14.359" x2="16.422" y2="14.359" gradientUnits="userSpaceOnUse">
      <stop stop-color="#6AC5A9"/>
      <stop offset="1" stop-color="#52C41A"/>
    </linearGradient>
    <clipPath id="a">
      <path fill="#fff" transform="translate(.915)" d="M0 0h37.333v37.333H0z"/>
    </clipPath>
  </defs>
</svg>
