<svg width="343" height="389" fill="none" xmlns="http://www.w3.org/2000/svg">
  <path fill-rule="evenodd" clip-rule="evenodd" d="M231.714 237.064c19.583 28.11 35.323 50.703 15.736 57.918-6.352-2.142-10.339-21.613-16.321-50.832-.739-3.607-1.508-7.363-2.315-11.252.973 1.401 1.941 2.79 2.9 4.166Zm-1.348 143.987c-2.048.213-3.919.326-5.637.28l5.637-.28Z" fill="#292F2C"/>
  <path fill-rule="evenodd" clip-rule="evenodd" d="M230.366 381.051c-2.048.213-3.919.326-5.637.28l5.637-.28Z" fill="#C4C4C4"/>
  <path d="M207.071 309.727c-6.988 2.329-5.698 17.613 3.106 60.533a32.337 32.337 0 0 0 1.49 3.103c3.249 5.877 7.292 7.814 13.062 7.968l5.637-.28c1.687-.176 3.494-.421 5.436-.703 19.044-16.995 17.795-39.968 11.648-85.366-6.352-2.142-10.339-21.613-16.321-50.832-.739-3.607-1.508-7.363-2.315-11.252a100.367 100.367 0 0 0-3.236 7.438 126.751 126.751 0 0 0-2.023 5.589c-4.525 13.454-7.106 27.959-9.203 39.743-2.35 13.207-4.092 22.997-7.281 24.059Z" fill="#C4C4C4"/>
  <path fill-rule="evenodd" clip-rule="evenodd" d="M230.366 381.051c-2.048.213-3.919.326-5.637.28l5.637-.28ZM231.126 244.139l.003.011-.003-.011Z" fill="#F6F6F6"/>
  <path d="M320.442 384.229c19.404-12.418 15.963-37.975 1.241-85.053h-30.407l2.329 21.144h-10.094l-2.33-22.11-33.731-3.228c6.147 45.398 7.396 68.371-11.648 85.366 31.814 4.424 50.123 5.821 84.64 3.881Z" fill="#F6F6F6"/>
  <path d="M334.183 275.42c-16.781-32.334-21.702-44.367-30.048-47.955-9.056-1.542-16.892-2.616-24.072-3.127a134.293 134.293 0 0 0-6.212-.303c-7.315-.181-14.073.314-20.966 1.604-2.053.384-4.117.838-6.212 1.366-5.618 1.416-11.454 3.36-17.859 5.893.851 1.226 1.699 2.443 2.54 3.65l.36.516c19.583 28.11 35.323 50.703 15.736 57.918l33.731 3.228c5.232-8.111 5.436-16.693 5.436-19.797 0-3.105 8.541-3.881 10.094 0 1.553 3.88-1.574 13.671-5.435 20.763h30.407c16.274-.244 19.5-7.765 12.5-23.756Z" fill="#F6F6F6"/>
  <path d="M321.683 299.176c14.722 47.078 18.163 72.635-1.241 85.053m1.241-85.053c16.274-.244 19.5-7.765 12.5-23.756-16.781-32.334-21.702-44.367-30.048-47.955-9.056-1.542-16.892-2.616-24.072-3.127m41.62 74.838h-30.407m29.166 85.053c-34.517 1.94-52.826.543-84.64-3.881m84.64 3.881h21.741m-106.381-3.881c19.044-16.995 17.795-39.968 11.648-85.366m-11.648 85.366c-1.942.282-3.749.527-5.436.703m-23.295-71.324c-6.988 2.329-5.698 17.613 3.106 60.533a32.337 32.337 0 0 0 1.49 3.103m-4.596-63.636c1.503 8.569 9.793 9.356 28.731 8.536m-28.731-8.536c3.189-1.062 4.931-10.852 7.281-24.059 2.097-11.784 4.678-26.289 9.203-39.743m5.259-13.027c6.405-2.533 12.241-4.477 17.859-5.893m-17.859 5.893a100.367 100.367 0 0 0-3.236 7.438m3.236-7.438c.851 1.226 1.699 2.443 2.54 3.65m-2.54-3.65c.806 3.886 1.575 7.638 2.312 11.241m16.324 50.843 33.731 3.228m-33.731-3.228c19.587-7.215 3.847-29.808-15.736-57.918m15.736 57.918c-6.352-2.142-10.339-21.613-16.321-50.832m48.934-19.812a134.293 134.293 0 0 0-6.212-.303m6.212.303a56.856 56.856 0 0 1-.491-1.283c-.967-2.591-1.699-4.551-5.721-7.231-4.659-3.104-13.641-2.022-19.413 1.552-3.798 2.769-5.407 5.002-7.765 9.629m0 0c2.095-.528 4.159-.982 6.212-1.366m0 0c6.893-1.29 13.651-1.785 20.966-1.604m-20.966 1.604c.17-.206.314-.389.451-.563.717-.911 1.231-1.565 4.208-3.82 5.436-3.104 9.309-3.518 13.977-.776 1.429 1.318 2.021 2.085 2.33 3.555m-62.184 149.328c-13.875-6.79-20.394-11.285-16.244-27.938 0 0 9.563-56.695 17.86-92.35 1.953-6.108 4.226-7.693 10.272-7.15m-11.888 127.438c3.249 5.877 7.292 7.814 13.062 7.968m-1.174-135.406a126.751 126.751 0 0 1 2.023-5.589m0 0-10.742 1.874c-4.017 1.139-5.831 3.157-7.765 10.865l-18.637 100.887c-1.292 8.094.163 11.592 6.212 16.298l18.637 11.64m0 0-12.425 3.104m12.425-3.104 11.446-.569m5.637-.28c-2.048.213-3.919.326-5.637.28m5.637-.28-5.637.28m91.829-2.535c11.11-10.221 12.889-20.34 6.989-47.34m-42.366-33.246c5.232-8.111 5.436-16.693 5.436-19.797 0-3.105 8.541-3.881 10.094 0 1.553 3.88-1.574 13.671-5.435 20.763m-10.095-.966 10.095.966m-10.095-.966 2.33 22.11h10.094l-2.329-21.144m-59.562-62.112-.36-.516m.36.516-.36-.516m-.225 7.602-.003-.011m.003.011-.003-.011" stroke="#292F2C" stroke-width="1.5" stroke-linecap="round" stroke-linejoin="round"/>
  <path d="M185.488 74.535c8.418.935 12.982.853 20.189-3.104 3.139 4.004 5.462 5.807 13.201 6.208 7.765-3.104 10.338 4.377 6.988 6.985-4.572 3.559-6.028 5.484-4.659 7.76l3.106 3.88c1.1-.786 2.144-1.517 3.14-2.213l.001-.002c6.338-4.434 10.693-7.48 14.719-14.858 4.659-8.536 3.098-16.33-4.659-16.297-3.412-23.517-10.674-27.905-27.954-17.849-13.201-8.535-24.763-4.918-24.849 13.97-12.481-5.062-20.93 3.066.777 15.52ZM147.439 134.293c3.98.343 5.908.904 7.765 3.88l5.435-.776c.686-.49 1.102-.861 1.193-1.261.072-.315-.058-.647-.416-1.067l-5.212-6.794-12.648-16.488c-.759-.722-1.268-.915-2.329-.776l-13.977 3.104c-1.555.446-1.666.977-.777 2.328l12.01 15.037a45.45 45.45 0 0 1 1.191.484c3.226 1.862 4.758 2.019 7.2 2.27l.565.059Z" fill="#292F2C"/>
  <path d="M128.027 358.572h24.072l.132-.094c7.436-5.237 11.645-8.202 15.397-16.98 1.211-3.433 2.053-6.394 2.887-9.325 1.154-4.058 2.292-8.059 4.369-13.18 1.163-2.131 2.592-4.424 4.392-6.985 6.534-10.569 9.346-17.287 11.647-31.818 2.993-13.919 7.837-20.976 27.178-31.042 25.915-13.436 36.908-22.369 43.485-43.459-20.961-.98-29.475-2.882-41.155-7.761-7.266 1.394-11.361 1.175-18.637-.776-33.495 32.971-48.623 63.154-64.117 121.841-2.227 8.434-4.461 17.457-6.759 27.162-.951 4.02-1.914 8.156-2.891 12.417Z" fill="#4BA83B"/>
  <path d="M137.677 318.993c15.494-58.687 30.622-88.87 64.117-121.841l-5.435-2.328-.042.005c-30.162 3.828-55.093 6.993-61.302 35.693l-15.53 84.591 18.192 3.88Z" fill="#4BA83B"/>
  <path d="M201.794 197.152c7.276 1.951 11.371 2.17 18.637.776 11.612-6.005 16.096-10.307 20.965-19.401 8.598-17.562 11.799-28.043 16.759-46.564-4.89-8.063-12.538-16.642-25.3-24.833-2.072 8.631-5.455 11.535-15.53 13.193.183 16.081-2.464 24.961-8.336 28.616-8.89 11.035-19.908 7.166-42.914-5.335l-2.884 10.09-6.434 22.505c8.095 14.686 22.519 9.312 39.602 18.625l5.435 2.328Z" fill="#4BA83B"/>
  <path d="m167.628 140.5-1.553 3.104c23.006 12.501 34.024 16.37 42.914 5.335-7.797 4.853-21.276.497-41.361-8.439Z" fill="#4BA83B"/>
  <path fill-rule="evenodd" clip-rule="evenodd" d="m166.075 143.604 1.553-3.104c-2.605-1.091-3.836-2.1-5.796-4.364-.091.4-.507.771-1.193 1.261 1.574 3.375 2.8 4.649 5.436 6.207Zm-4.659-8.535v-.007c.137-3.264.214-5.095-5.212-6.787l5.212 6.794Z" fill="#4BA83B"/>
  <path d="M220.431 197.928c11.68 4.879 20.194 6.781 41.155 7.761h7.765c10.997-7.983 3.574-32.16-.529-45.522l-.001-.004-.001-.002c-.374-1.218-.72-2.346-1.022-3.364a229.02 229.02 0 0 1-.889-3.096l-.001-.002c-1.731-6.126-3.863-13.673-8.753-21.736-4.96 18.521-8.161 29.002-16.759 46.564-4.869 9.094-9.353 13.396-20.965 19.401Z" fill="#4BA83B"/>
  <path fill-rule="evenodd" clip-rule="evenodd" d="m166.075 143.604 1.553-3.104c-2.605-1.091-3.836-2.1-5.796-4.364-.091.4-.507.771-1.193 1.261 1.574 3.375 2.8 4.649 5.436 6.207Zm-4.659-8.535v-.007c.137-3.264.214-5.095-5.212-6.787l5.212 6.794Z" fill="#F6F6F6"/>
  <path d="M201.794 197.152c7.276 1.951 11.371 2.17 18.637.776 11.612-6.005 16.096-10.307 20.965-19.401 8.598-17.562 11.799-28.043 16.759-46.564-4.89-8.063-12.538-16.642-25.3-24.833-2.072 8.631-5.455 11.535-15.53 13.193.183 16.081-2.464 24.961-8.336 28.616-8.89 11.035-19.908 7.166-42.914-5.335l-2.884 10.09-6.434 22.505c8.095 14.686 22.519 9.312 39.602 18.625l5.435 2.328Z" fill="#F6F6F6"/>
  <path d="M220.431 197.928c11.68 4.879 20.194 6.781 41.155 7.761h7.765c10.997-7.983 3.574-32.16-.529-45.522l-.001-.004-.001-.002c-.374-1.218-.72-2.346-1.022-3.364a229.02 229.02 0 0 1-.889-3.096l-.001-.002c-1.731-6.126-3.863-13.673-8.753-21.736-4.96 18.521-8.161 29.002-16.759 46.564-4.869 9.094-9.353 13.396-20.965 19.401ZM167.628 140.5l-1.553 3.104c23.006 12.501 34.024 16.37 42.914 5.335-7.797 4.853-21.276.497-41.361-8.439Z" fill="#F6F6F6"/>
  <path d="M162.97 387.286v.75h.797l-.049-.796-.748.046Zm-74.545 0-.585-.47-.978 1.22h1.563v-.75Zm8.54-8.1-.336-.67-.062.031-.055.042.454.597Zm121.136-130.038-.345-.666-.001.001.346.665Zm-27.178 31.042-.733-.158-.004.02-.003.021.74.117Zm-11.647 31.818.613.432.013-.019.012-.018-.638-.395Zm-11.648 29.49.69.295.009-.022.008-.023-.707-.25Zm7.256-22.505-.658-.359-.021.037-.016.04.695.282ZM76 335.29l-.564-.494-.856.978 1.274.252.146-.736Zm12.425-7.761-.181-.727-.026.006-.026.008.233.713Zm46.59-97.007-.733-.158-.003.011-.002.012.738.135Zm134.336-24.833v.75h.243l.197-.143-.44-.607Zm-1.553-48.892.719-.213-.719.213ZM167.628 140.5l.305-.685-.008-.004-.007-.003-.29.692Zm-10.871 35.699-.721-.207-.085.298.149.271.657-.362Zm84.639 2.328.662.354.006-.012.006-.013-.674-.329Zm16.759-46.564.641-.389-.641.389Zm-46.266-30.266-.141-.737.141.737Zm-22.519-8.536.62-.423-.227-.334-.404.007.011.75Zm-5.435-3.105.741.113.003-.019.002-.019-.746-.075Zm21.742-18.625.59-.463-.393-.501-.558.306.361.658Zm13.201 6.208-.039.75.164.008.153-.061-.278-.697Zm6.988 6.985.461.592-.461-.592Zm-4.659 7.76-.643.387.026.043.032.04.585-.47Zm20.966-13.192.658.359-.658-.36Zm-4.659-16.298-.742.108.093.645.652-.003-.003-.75ZM209.56 45.045l-.408.63.387.25.398-.232-.377-.648Zm-24.849 13.97-.282.694 1.027.416.005-1.108-.75-.003Zm4.659 22.506h.75v-.035l-.003-.035-.747.07Zm9.318 5.432-.711-.237.711.237Zm0-6.208-.655.364.655-.364Zm-20.189-6.985-.106-.742-.089.012-.083.034.278.696Zm-15.308 79.934.721.206-.721-.206Zm-18.082-10.865-.188.726.008.002.18-.728Zm-7.765-5.432-.693.287.014.034.018.033.661-.354Zm2.33-5.433.375-.649-.039-.023-.041-.017-.295.689Zm7.765 2.329-.079.745.007.001.007.001.065-.747Zm7.765 3.88-.636.397.258.414.484-.069-.106-.742Zm-16.721-6.693-.274.698.274-.698Zm-12.01-15.037-.626.413.019.028.021.027.586-.468Zm.777-2.328-.163-.732-.022.005-.022.006.207.721Zm13.977-3.104-.098-.744-.032.004-.033.008.163.732Zm2.329.776.595-.457-.035-.046-.043-.041-.517.544Zm17.86 23.282-.595.456.011.015.013.015.571-.486Zm-5.212-6.794-.595.456.595-.456ZM97.498 378.918l-.337-.67.337.67Zm98.819-184.089.094.744-.094-.744Zm-34.901-59.767.75.031-.75-.031Zm-9.185 223.416-.432-.613.432.613Zm18.284-26.305.721.205-.721-.205Zm98.307-172.006-.717.219v.001l.717-.22Zm-1.914-6.468-.722.204.722-.204Zm-39.454-59.65-.43-.614.43.614Zm41.367 66.114.718-.218-.002-.006-.716.224Zm-41.368-66.112.43.614-.43-.614Zm41.367 66.11-.716.221.001.004.715-.225Zm-1.911-6.46.722-.204h-.001l-.721.204Zm-120.035-19.467.078-.746h-.002l-.076.746Zm.297.03.077-.746-.077.746Zm-.292-.03-.078.746h.001l.077-.746Zm16.839 253.006c-.308-5.021-.691-9.077-2.198-13.5-1.506-4.42-4.117-9.162-8.815-15.61l-1.213.883c4.653 6.386 7.17 10.989 8.608 15.211 1.438 4.219 1.814 8.104 2.121 13.108l1.497-.092Zm-11.619-29.418h-24.072v1.5h24.072v-1.5Zm-63.674 30.214h74.545v-1.5H88.425v1.5Zm8.087-9.447c-3.308 2.513-6.197 5.143-8.672 8.227l1.17.939c2.377-2.963 5.167-5.509 8.41-7.972l-.908-1.194ZM201.6 197.876c3.664.983 6.565 1.54 9.484 1.668 2.92.127 5.822-.176 9.488-.879l-.283-1.473c-3.599.69-6.377.974-9.14.853-2.765-.121-5.548-.649-9.16-1.617l-.389 1.448Zm18.542.744c11.785 4.923 20.393 6.835 41.409 7.818l.07-1.499c-20.905-.977-29.327-2.869-40.901-7.703l-.578 1.384Zm40.728 6.845c-3.258 10.448-7.592 17.837-14.295 24.283-6.726 6.469-15.869 12.02-28.819 18.734l.69 1.332c12.966-6.722 22.276-12.356 29.169-18.985 6.916-6.651 11.367-14.274 14.687-24.917l-1.432-.447Zm-43.115 43.018c-9.699 5.047-15.85 9.383-19.948 14.259-4.113 4.894-6.108 10.272-7.617 17.29l1.467.316c1.483-6.901 3.407-12.011 7.299-16.641 3.907-4.649 9.849-8.876 19.491-13.894l-.692-1.33Zm-27.572 31.59c-2.286 14.429-5.061 21.054-11.545 31.541l1.276.789c6.584-10.651 9.432-17.462 11.75-32.096l-1.481-.234Zm-11.521 31.504c-1.813 2.581-3.258 4.898-4.436 7.057l1.317.718c1.147-2.102 2.561-4.371 4.346-6.912l-1.227-.863Zm-49.904 47.162a1844.88 1844.88 0 0 1 2.89-12.411l-1.459-.346c-.953 4.022-1.916 8.16-2.893 12.422l1.462.335Zm2.306-13.32-54.918-10.865-.292 1.472 54.919 10.865.291-1.472Zm-54.5-9.635c1.854-2.118 3.48-3.538 5.32-4.657 1.85-1.123 3.946-1.963 6.773-2.884l-.465-1.427c-2.864.934-5.09 1.816-7.086 3.029-2.004 1.218-3.744 2.75-5.67 4.951l1.128.988Zm12.042-7.527c12.787-3.186 19.653-5.878 31.25-12.493l-.743-1.303c-11.474 6.545-18.211 9.187-30.87 12.341l.363 1.455Zm43.042 18.071c2.297-9.701 4.529-18.717 6.754-27.144l-1.45-.383c-2.229 8.442-4.465 17.472-6.763 27.181l1.459.346Zm6.754-27.144c15.473-58.606 30.55-88.651 63.919-121.497l-1.053-1.069c-33.622 33.096-48.8 63.415-64.316 122.183l1.45.383Zm-19.074-3.338 18.193 3.88.312-1.467-18.192-3.88-.313 1.467Zm76.736-120.333 5.435 2.328.591-1.378-5.436-2.329-.59 1.379Zm-75.842 119.735 15.53-84.59-1.475-.271-15.53 84.59 1.475.271Zm141.364-108.809h7.765v-1.5h-7.765v1.5Zm-29.46-99.484c-1.022 4.254-2.335 6.954-4.521 8.815-2.203 1.875-5.397 2.989-10.402 3.812l.243 1.481c5.071-.835 8.606-2.001 11.131-4.151 2.543-2.164 3.957-5.231 5.007-9.607l-1.458-.35Zm-65.169 33.209-1.553 3.105 1.342.671 1.553-3.104-1.342-.672ZM156.1 176.561c4.195 7.61 10.069 10.016 16.909 11.694 6.841 1.678 14.562 2.633 22.991 7.227l.718-1.317c-8.654-4.717-16.687-5.732-23.352-7.367-6.667-1.636-12.052-3.886-15.952-10.961l-1.314.724Zm64.675 22.033c5.831-3.015 9.924-5.629 13.178-8.659 3.262-3.038 5.646-6.463 8.105-11.054l-1.323-.708c-2.411 4.503-4.703 7.776-7.804 10.664-3.109 2.895-7.064 5.435-12.845 8.425l.689 1.332Zm38.021-67.02c-4.952-8.165-12.683-16.826-25.536-25.076l-.81 1.263c12.671 8.133 20.236 16.631 25.064 24.591l1.282-.778Zm-16.726 47.282c8.628-17.622 11.844-28.155 16.81-46.699l-1.449-.388c-4.954 18.498-8.14 28.927-16.708 46.428l1.347.659Zm-25.495-58.525c.091 8.009-.525 14.165-1.867 18.749-1.341 4.575-3.386 7.523-6.116 9.222l.793 1.274c3.142-1.956 5.357-5.276 6.762-10.074 1.403-4.79 2.02-11.115 1.928-19.188l-1.5.017Zm-7.983 27.971c-3.639 2.265-8.708 2.444-15.505.858-6.78-1.582-15.115-4.879-25.154-9.345l-.61 1.37c10.045 4.469 18.493 7.819 25.423 9.436 6.913 1.612 12.482 1.542 16.639-1.045l-.793-1.274Zm-42.875-4.039c11.483 6.24 20.098 10.399 26.982 11.574 3.466.591 6.536.436 9.333-.616 2.797-1.052 5.256-2.976 7.541-5.812l-1.169-.941c-2.16 2.682-4.412 4.413-6.9 5.349-2.488.936-5.277 1.1-8.553.541-6.598-1.126-14.995-5.152-26.518-11.413l-.716 1.318Zm52.354-24.009c-.759-8.28-2.163-12.336-5.514-18.898l-1.336.682c3.274 6.412 4.616 10.285 5.357 18.353l1.493-.137Zm-6.041-17.82c2.757-.527 4.76-1.124 6.673-1.995 1.904-.868 3.695-1.996 6.026-3.55l-.832-1.248c-2.328 1.551-4.031 2.62-5.816 3.433-1.774.808-3.655 1.375-6.333 1.886l.282 1.474Zm11.694-5.706 8.541 10.865 1.179-.927-8.541-10.865-1.179.927Zm-11.976 4.232c-5.622 1.074-9.541 1.168-12.788-.032-3.23-1.194-5.922-3.718-8.97-8.19l-1.239.845c3.117 4.574 6.03 7.399 9.689 8.752 3.644 1.347 7.902 1.185 13.59.099l-.282-1.474Zm-22.389-8.55c-.96.016-1.778.027-2.472-.01-.702-.04-1.207-.126-1.561-.27-.326-.134-.495-.303-.592-.531-.112-.263-.169-.699-.058-1.43l-1.483-.226c-.131.86-.106 1.616.161 2.243.281.66.787 1.08 1.404 1.332.59.241 1.296.338 2.047.379.757.041 1.632.028 2.577.013l-.023-1.5Zm-3.954-17.13c4.215.469 7.538.692 10.728.281 3.207-.412 6.239-1.46 9.905-3.473l-.722-1.314c-3.541 1.944-6.394 2.916-9.375 3.3-2.999.386-6.168.183-10.37-.284l-.166 1.49Zm19.682-3.386c1.587 2.024 3.034 3.581 5.121 4.659 2.079 1.073 4.718 1.633 8.631 1.835l.077-1.498c-3.825-.198-6.217-.74-8.02-1.67-1.793-.926-3.077-2.273-4.629-4.252l-1.18.926Zm14.069 6.442c1.833-.733 3.29-.814 4.387-.552 1.091.26 1.876.87 2.372 1.62 1.023 1.547.798 3.61-.509 4.628l.921 1.184c2.043-1.59 2.206-4.571.839-6.64-.7-1.059-1.805-1.9-3.275-2.251-1.465-.35-3.243-.201-5.292.618l.557 1.393Zm6.25 5.696c-2.28 1.774-3.888 3.217-4.732 4.553-.432.684-.689 1.38-.709 2.106-.02.73.201 1.418.599 2.08l1.286-.773c-.286-.476-.396-.883-.386-1.266.011-.385.147-.82.479-1.347.685-1.085 2.091-2.384 4.384-4.17l-.921-1.183Zm-4.784 8.821 3.106 3.88 1.171-.937-3.106-3.88-1.171.937Zm22.209-13.302c2.379-4.359 3.238-8.643 2.395-11.91-.426-1.647-1.289-3.042-2.611-4.018-1.32-.974-3.039-1.487-5.104-1.479l.006 1.5c1.813-.007 3.198.441 4.207 1.186 1.007.743 1.697 1.823 2.049 3.187.712 2.757.022 6.637-2.258 10.815l1.316.719Zm-57.838-21.232c-3.202-1.298-6.198-1.774-8.561-1.512-2.334.26-4.254 1.278-4.867 3.168-.602 1.857.199 4.158 2.317 6.654 2.143 2.527 5.767 5.42 11.233 8.557l.746-1.301c-5.388-3.092-8.848-5.884-10.836-8.226-2.012-2.372-2.389-4.123-2.033-5.221.346-1.067 1.522-1.909 3.605-2.14 2.053-.227 4.794.18 7.832 1.411l.564-1.39Zm.468.698c.043-9.333 2.917-14.584 7.083-16.595 4.198-2.028 10.091-.961 16.608 3.253l.815-1.26c-6.683-4.32-13.172-5.712-18.076-3.344-4.937 2.385-7.886 8.386-7.93 17.94l1.5.006Zm24.476-13.324c4.29-2.497 7.902-4.062 10.948-4.673 3.03-.609 5.455-.267 7.452.994 2.016 1.272 3.704 3.55 5.104 7.035 1.398 3.482 2.481 8.1 3.331 13.953l1.484-.215c-.857-5.905-1.961-10.656-3.424-14.297-1.461-3.638-3.308-6.238-5.694-7.745-2.405-1.519-5.249-1.858-8.548-1.196-3.281.659-7.058 2.316-11.408 4.848l.755 1.296Zm-25.256 44.438 1.087-10.864-1.493-.15-1.087 10.865 1.493.149Zm1.087-10.864.466-4.657-1.493-.15-.466 4.658 1.493.15Zm-.689.673c.745-.057 1.262.048 1.774.332.548.304 1.135.838 1.961 1.752l1.113-1.006c-.841-.93-1.567-1.626-2.346-2.058-.816-.452-1.639-.59-2.616-.515l.114 1.495Zm3.541 1.58c0 4.524 2.144 7.196 4.657 8.11 2.423.88 5.286.07 6.123-2.44l-1.423-.474c-.485 1.455-2.281 2.197-4.187 1.504-1.815-.66-3.67-2.687-3.67-6.7h-1.5Zm10.78 5.67c.796-2.385 1.109-4.715-.056-6.81l-1.311.729c.85 1.53.701 3.336-.056 5.607l1.423.474Zm-.056-6.81c-1.024-1.842-2.215-2.987-3.482-3.553-1.276-.571-2.551-.518-3.654-.104-1.089.408-2.012 1.166-2.645 2.024-.625.845-1.03 1.873-.939 2.844l1.493-.14c-.045-.481.161-1.148.652-1.813.481-.65 1.178-1.215 1.966-1.51a3.228 3.228 0 0 1 2.515.068c.888.397 1.866 1.263 2.783 2.913l1.311-.729Zm-13.583-1.317c-.59-3.368-2.402-4.939-4.136-5.614a7.073 7.073 0 0 0-3.202-.435.68.68 0 0 0-.025.003h-.004l.105.743.105.743h-.002.005l.031-.004c.03-.003.078-.008.142-.011a5.579 5.579 0 0 1 2.301.36c1.255.488 2.705 1.634 3.202 4.474l1.478-.259Zm-7.262-5.303a71.167 71.167 0 0 0-.279-.696h-.001l-.003.002-.005.002-.016.007a3.576 3.576 0 0 0-.203.096 4.893 4.893 0 0 0-.496.296c-.395.267-.9.689-1.35 1.307-.923 1.268-1.532 3.257-.697 6.177l1.442-.412c-.718-2.513-.163-4.017.467-4.883a3.99 3.99 0 0 1 .98-.948 3.386 3.386 0 0 1 .427-.246l.016-.007h.001-.003l-.001.001-.279-.696Zm-3.05 7.19c.841 2.945 3.105 4.835 5.476 4.715 2.457-.124 4.437-2.341 4.843-6.398l-1.493-.15c-.37 3.705-2.04 4.98-3.426 5.05-1.473.074-3.247-1.14-3.958-3.629l-1.442.413Zm-10.095 62.448-2.885 10.09 1.443.412 2.884-10.09-1.442-.412Zm-2.885 10.09-6.433 22.504 1.442.413 6.434-22.505-1.443-.412Zm1.293-.28c-2.644-3.104-4.975-5.329-7.811-7.057-2.834-1.726-6.128-2.928-10.662-4.05l-.36 1.456c4.462 1.104 7.592 2.261 10.241 3.875 2.647 1.612 4.859 3.706 7.45 6.748l1.142-.972Zm-18.465-11.105c-2.038-.528-3.429-1.026-4.523-1.76-1.074-.72-1.914-1.704-2.769-3.3l-1.322.708c.933 1.743 1.921 2.943 3.255 3.838 1.315.882 2.913 1.43 4.983 1.966l.376-1.452Zm-7.26-4.993c-1.533-3.704-5.117-5.082-7.444-5.857l-.474 1.423c2.331.777 5.281 1.985 6.532 5.008l1.386-.574Zm-7.444-5.857a2.235 2.235 0 0 1-.52-.236c-.108-.072-.134-.117-.134-.116.043.075-.02.141.032.077.076-.096.276-.251.639-.382a3.89 3.89 0 0 1 1.299-.21v-1.5c-.663 0-1.284.11-1.808.299-.51.185-.99.466-1.302.856-.337.421-.496 1.02-.162 1.604.283.496.84.817 1.482 1.031l.474-1.423Zm16.781 3.787c1.988.171 3.348.392 4.431.888 1.046.479 1.891 1.245 2.763 2.642l1.272-.794c-.985-1.579-2.033-2.581-3.41-3.212-1.341-.614-2.934-.847-4.927-1.019l-.129 1.495Zm7.936 3.875 5.435-.776-.212-1.485-5.435.776.212 1.485Zm4.65-1.201c.801 1.719 1.537 2.955 2.439 3.967.904 1.016 1.943 1.77 3.294 2.569l.764-1.292c-1.285-.759-2.178-1.42-2.938-2.275-.764-.858-1.428-1.947-2.2-3.603l-1.359.634Zm-28.051-7.328c.698 0 1.811.257 3.033.633 1.195.368 2.408.821 3.267 1.159l.549-1.396a48.722 48.722 0 0 0-3.375-1.197c-1.221-.375-2.527-.699-3.474-.699v1.5Zm6.3 1.792a48.07 48.07 0 0 1 1.089.442l.061.025.015.007a.008.008 0 0 0 .004.001v.001l.296-.69.295-.689h-.001l-.001-.001-.004-.002-.018-.007-.065-.028-.245-.102c-.21-.087-.512-.21-.877-.353l-.549 1.396Zm.86-1.166-12.01-15.037-1.172.936 12.01 15.037 1.172-.936ZM127.1 116.031c-.212-.322-.334-.551-.395-.717-.06-.164-.032-.19-.044-.152-.015.049-.037.026.082-.048.128-.08.349-.174.713-.278l-.413-1.442c-.413.119-.789.258-1.091.446-.311.193-.597.471-.723.878-.123.395-.053.783.067 1.112.121.328.318.672.551 1.026l1.253-.825Zm.312-1.184 13.977-3.104-.325-1.464-13.977 3.104.325 1.464Zm13.912-3.093c.475-.062.738-.037.938.032.205.07.429.213.777.544l1.034-1.087c-.41-.39-.821-.704-1.326-.877-.509-.174-1.032-.176-1.618-.099l.195 1.487Zm19.521 23.801c.149.175.215.291.241.36a.162.162 0 0 1 .015.051v.004l1.462.332c.153-.669-.172-1.245-.576-1.719l-1.142.972Zm.256.415c-.002.006-.022.079-.176.236-.154.156-.385.34-.721.58l.871 1.221c.35-.249.669-.495.918-.748.248-.251.481-.564.57-.957l-1.462-.332Zm6.817 3.838c-1.263-.529-2.161-1.024-2.974-1.646-.818-.625-1.577-1.399-2.545-2.517l-1.134.982c.992 1.146 1.829 2.009 2.768 2.727.943.721 1.963 1.276 3.305 1.838l.58-1.384Zm-24.957-27.565 12.648 16.488 1.19-.913-12.648-16.488-1.19.913Zm12.648 16.488 5.212 6.794 1.19-.913-5.212-6.794-1.19.913ZM97.302 379.856l.533-.268-.674-1.34-.532.268.673 1.34Zm.533-.268c10-5.025 20.516-10.305 30.722-20.485l-1.06-1.062c-10.017 9.992-20.333 15.181-30.336 20.207l.674 1.34Zm37.913-148.907c3.05-14.099 10.663-21.881 21.243-26.649 10.656-4.801 24.304-6.54 39.42-8.459l-.189-1.488c-15.045 1.91-28.944 3.667-39.847 8.58-10.978 4.947-18.934 13.097-22.093 27.699l1.466.317Zm60.664-35.108.042-.005-.19-1.488-.042.005.19 1.488Zm-40.431-66.582c2.677.835 3.779 1.646 4.271 2.472.505.848.486 1.872.415 3.567l1.499.063c.065-1.568.153-3.091-.625-4.398-.792-1.328-2.365-2.279-5.113-3.136l-.447 1.432Zm4.686 6.039v.007l1.498.064.001-.007-1.499-.064Zm6.271 206.174c-1.844 4.315-3.785 7.169-6.162 9.586-2.394 2.436-5.245 4.447-8.977 7.075l.864 1.227c3.704-2.609 6.675-4.699 9.183-7.25 2.525-2.569 4.565-5.587 6.472-10.049l-1.38-.589Zm-15.139 16.661-.132.094.864 1.226.132-.093-.864-1.227Zm16.536-16.117c1.22-3.458 2.067-6.439 2.901-9.37l-1.443-.41c-.834 2.932-1.67 5.872-2.872 9.281l1.414.499Zm2.901-9.37c1.154-4.055 2.283-8.023 4.343-13.103l-1.39-.564c-2.094 5.162-3.241 9.197-4.396 13.257l1.443.41Zm98.555-126.082c2.942-2.135 4.614-5.331 5.426-9.048.812-3.711.779-7.99.277-12.388-1.003-8.793-3.907-18.244-5.955-24.913l-1.434.44c2.055 6.693 4.914 16.012 5.899 24.643.492 4.315.51 8.412-.252 11.897-.76 3.478-2.284 6.298-4.842 8.155l.881 1.214Zm-2.161-52.801c-1.731-6.127-3.886-13.762-8.834-21.921l-1.282.778c4.832 7.968 6.942 15.427 8.672 21.551l1.444-.408Zm-39.746-58.831c6.346-4.44 10.831-7.57 14.947-15.113l-1.316-.719c-3.936 7.212-8.161 10.175-14.491 14.603l.86 1.229Zm-67.217 40.366v.007l1.498.063v-.003l.001-.004-1.499-.063Zm-8.868 222.835-.132.094.864 1.226.132-.093-.864-1.227Zm44.612-162.292.022-.002.02-.003-.189-1.488-.021.003-.021.002.189 1.488Zm-99.25 182.675-.532.268.674 1.34.532-.268-.674-1.34ZM227.024 93.435l-.002.001.861 1.229.002-.001-.861-1.229Zm-.001.001c-.995.696-2.043 1.43-3.146 2.219l.873 1.22a346.77 346.77 0 0 1 3.133-2.21l-.86-1.229Zm42.517 66.513-.001-.004-1.435.437.001.004 1.435-.437Zm-.003-.01-.001-.002-1.431.449v.002l1.432-.449Zm0 .002a411.128 411.128 0 0 1-1.02-3.357l-1.438.427c.303 1.021.651 2.153 1.025 3.371l1.433-.441Zm-1.02-3.357c-.291-.979-.582-2.008-.886-3.087l-1.444.408c.304 1.077.598 2.115.892 3.106l1.438-.427Zm-.887-3.087v-.002l-1.444.408.001.002 1.443-.408Zm-128.331-20.883c1.651.952 2.899 1.487 4.068 1.812 1.162.323 2.217.429 3.43.554l.153-1.492c-1.229-.126-2.16-.224-3.181-.508-1.014-.281-2.145-.756-3.72-1.665l-.75 1.299Zm7.497 2.366h.005l.156-1.492h-.005l-.156 1.492Zm.007 0 .291.03.154-1.492a93.67 93.67 0 0 1-.292-.03l-.153 1.492Zm.291.03.266.028.158-1.491-.27-.029-.154 1.492Zm-.292-.03.292.031.154-1.493-.292-.03-.154 1.492Z" fill="#292F2C"/>
  <g clip-path="url(#a)">
    <path fill-rule="evenodd" clip-rule="evenodd" d="M105.987 32.937c2.055-1.926 11.246-11.008 11.246-19.439 0-6.382-5.216-11.556-11.651-11.556-6.434 0-11.65 5.174-11.65 11.556 0 7.715 9.231 17.392 11.259 19.425.223.224.565.23.796.014Zm-.405-13.967a6.273 6.273 0 0 0 6.273-6.274 6.273 6.273 0 1 0-12.546 0 6.273 6.273 0 0 0 6.273 6.274Z" fill="#fff"/>
    <path d="m105.987 32.937.498.531-.498-.531Zm-.796-.014-.515.515.515-.515Zm11.313-19.425c0 3.98-2.183 8.2-4.715 11.735-2.516 3.51-5.289 6.225-6.3 7.173l.996 1.062c1.044-.978 3.894-3.767 6.487-7.387 2.577-3.596 4.989-8.131 4.989-12.583h-1.457ZM105.582 2.67c6.038 0 10.922 4.853 10.922 10.828h1.457c0-6.79-5.548-12.284-12.379-12.284V2.67ZM94.66 13.498c0-5.975 4.884-10.828 10.922-10.828V1.214c-6.83 0-12.378 5.494-12.378 12.284h1.456Zm11.047 18.911c-1.001-1.003-3.783-3.897-6.31-7.487-2.552-3.623-4.737-7.81-4.737-11.424h-1.456c0 4.1 2.43 8.61 5.002 12.263 2.595 3.686 5.442 6.647 6.47 7.677l1.031-1.029Zm-.218-.003a.16.16 0 0 1 .11-.04.16.16 0 0 1 .108.043l-1.031 1.029a1.29 1.29 0 0 0 1.809.03l-.996-1.062Zm5.638-19.71a5.545 5.545 0 0 1-5.545 5.545v1.457a7.001 7.001 0 0 0 7.001-7.002h-1.456Zm-5.545-5.545a5.545 5.545 0 0 1 5.545 5.545h1.456a7.001 7.001 0 0 0-7.001-7.001V7.15Zm-5.545 5.545a5.545 5.545 0 0 1 5.545-5.545V5.695a7.001 7.001 0 0 0-7.001 7.001h1.456Zm5.545 5.545a5.545 5.545 0 0 1-5.545-5.545H98.58a7.001 7.001 0 0 0 7.002 7.002V18.24Z" fill="#4BA83B"/>
    <path d="M111.407 32.78c1.788.534 2.913 1.309 2.913 2.172 0 1.608-3.912 2.912-8.738 2.912s-8.738-1.304-8.738-2.912c0-.863 1.125-1.638 2.913-2.171" stroke="#292F2C" stroke-width="1.456" stroke-linecap="round"/>
  </g>
  <path d="M2.772 98.686v25.616l10.813-6.404 12.356 6.404 10.812-6.404V92.282l-10.812 6.404-12.356-6.404-10.813 6.404Z" fill="#fff"/>
  <path fill-rule="evenodd" clip-rule="evenodd" d="M13.43 91.451c.023 0 .045.001.067.003a.729.729 0 0 1 .398.077l11.987 6.126a.727.727 0 0 1 .285-.048l10.372-6.058a.728.728 0 0 1 1.095.628v25.45a.729.729 0 0 1-.36.629l-10.532 6.15a.727.727 0 0 1-.663.308.718.718 0 0 1-.397-.077l-11.988-6.126a.72.72 0 0 1-.264.049h-.02L3.037 124.62a.729.729 0 0 1-1.095-.629v-25.45c0-.258.137-.498.36-.628l10.53-6.15a.727.727 0 0 1 .598-.312Zm13.444 31.194 9.304-5.434V93.448l-9.304 5.434v23.763Zm-1.457-23.59v23.814l-11.259-5.754V93.301l11.26 5.754ZM3.398 98.96l9.304-5.434v23.763l-9.304 5.434V98.96Z" fill="#4BA83B"/>
  <path d="M19.6 112.321a.194.194 0 0 1 .215.269l-5.884 13.354c-.078.178-.34.143-.37-.049l-1.15-7.457a.194.194 0 0 0-.12-.151l-7.034-2.733c-.18-.071-.158-.334.032-.372l14.31-2.861Z" fill="#fff" stroke="#292F2C" stroke-width="1.456"/>
  <path stroke="#292F2C" stroke-width="1.413" stroke-linecap="round" d="m70.273 258.036-7.481-7.481"/>
  <circle cx="54.312" cy="240.133" r="13.192" fill="#fff" stroke="#4BA83B" stroke-width="1.413"/>
  <path d="M61.891 234.533a9.42 9.42 0 0 0-8.062-3.811" stroke="#292F2C" stroke-width="1.413" stroke-linecap="round"/>
  <path d="M17.466 192.323a6.063 6.063 0 0 1-6.4 5.534 6.068 6.068 0 0 1-5.71-6.243 6.062 6.062 0 0 1 3.098-5.102" stroke="#C5C5C5" stroke-width="1.5"/>
  <ellipse cx="13.803" cy="187.997" rx="6.068" ry="6.064" stroke="#292F2C" stroke-width="1.5"/>
  <ellipse cx="51.578" cy="62.464" rx="4.248" ry="4.245" stroke="#4BA83B" stroke-width="1.5"/>
  <defs>
    <clipPath id="a">
      <path fill="#fff" transform="translate(86.165)" d="M0 0h38.835v38.812H0z"/>
    </clipPath>
  </defs>
</svg>
