<svg width="106" height="18" fill="none" xmlns="http://www.w3.org/2000/svg">
  <path d="m9 0 2.645 5.36 5.915.859-4.28 4.172 1.01 5.89L9 13.5l-5.29 2.781 1.01-5.89L.44 6.219l5.915-.86L9 0ZM31 0l2.645 5.36 5.914.859-4.28 4.172 1.011 5.89L31 13.5l-5.29 2.781 1.01-5.89-4.28-4.172 5.915-.86L31 0ZM53 0l2.645 5.36 5.914.859-4.28 4.172 1.011 5.89L53 13.5l-5.29 2.781 1.01-5.89-4.28-4.172 5.915-.86L53 0ZM75 0l2.645 5.36 5.915.859-4.28 4.172 1.01 5.89L75 13.5l-5.29 2.781 1.01-5.89-4.28-4.172 5.915-.86L75 0ZM97 0l2.645 5.36 5.915.859-4.28 4.172 1.01 5.89L97 13.5l-5.29 2.781 1.01-5.89-4.28-4.172 5.915-.86L97 0Z" fill="#F2B311"/>
</svg>
